<?xml version="1.0" encoding="UTF-8" standalone="no"?>
<!DOCTYPE svg  PUBLIC '-//W3C//DTD SVG 1.1//EN'  'http://www.w3.org/Graphics/SVG/1.1/DTD/svg11.dtd'>
<svg version="1.1" xmlns="http://www.w3.org/2000/svg">
<defs>
<font id="SourceSansPro-Regular" horiz-adv-x="497">
<font-face font-weight="400" descent="-250" font-family="Source Sans Pro" underline-thickness="50" bbox="-40 -250 885 875" ascent="750" panose-1="2 11 5 3 3 4 3 2 2 4" unicode-range="U+0020-04F3" underline-position="-150" x-height="486" units-per-em="1000" cap-height="656"/>
<missing-glyph/>
<glyph unicode=" " horiz-adv-x="200" glyph-name="space"/>
<glyph unicode="!" horiz-adv-x="289" glyph-name="exclam" d="M116 198l-11 378l-2 94h83l-2 -94l-11 -378h-57zM145 -12q-25 0 -42.5 17.5t-17.5 44.5q0 28 17.5 46t42.5 18t42 -18t17 -46q0 -27 -17.5 -44.5t-41.5 -17.5z"/>
<glyph unicode='&quot;' horiz-adv-x="426" glyph-name="quotedbl" d="M99 431l-16 167l-3 92h88l-3 -92l-16 -167h-50zM276 431l-16 167l-3 92h88l-3 -92l-16 -167h-50z"/>
<glyph unicode="#" d="M90 0l25 204h-80v57h87l18 148h-85v58h92l23 183h53l-23 -183h133l24 183h53l-24 -183h81v-58h-87l-18 -148h85v-57h-92l-25 -204h-53l24 204h-132l-25 -204h-54zM176 261h132l18 148h-132z" glyph-name="numbersign"/>
<glyph unicode="$" d="M424 573l-44 -49q-31 30 -57.5 43.5t-64.5 13.5q-46 0 -73 -26t-27 -70q0 -29 15.5 -51.5t40 -38t54.5 -29.5t59.5 -31t54 -38t40 -54.5t15.5 -77.5q0 -71 -42 -117.5t-113 -56.5v-101h-60v99q-97 9 -170 77l38 57q78 -67 155 -67q54 0 82.5 27.5t28.5 75.5 q0 38 -20.5 66.5t-51.5 45.5t-67.5 37t-67.5 39t-51.5 53.5t-20.5 80.5q0 66 39.5 111t105.5 56v100h60v-99q78 -9 142 -76z" glyph-name="dollar"/>
<glyph unicode="%" horiz-adv-x="824" glyph-name="percent" d="M184 254q-68 0 -108.5 55t-40.5 153q0 97 40.5 151.5t108.5 54.5t108.5 -54.5t40.5 -151.5q0 -98 -40.5 -153t-108.5 -55zM184 305q39 0 62.5 40.5t23.5 116.5t-23 115.5t-63 39.5t-63.5 -39.5t-23.5 -115.5t23.5 -116.5t63.5 -40.5zM641 -12q-68 0 -108.5 55t-40.5 153 q0 97 40.5 151.5t108.5 54.5t108.5 -54.5t40.5 -151.5q0 -98 -40.5 -153t-108.5 -55zM641 39q39 0 62.5 40.5t23.5 116.5t-23 115.5t-63 39.5t-63.5 -39.5t-23.5 -115.5t23.5 -116.5t63.5 -40.5zM203 -12l362 680h56l-362 -680h-56z"/>
<glyph unicode="&amp;" horiz-adv-x="609" glyph-name="ampersand" d="M112 175q0 -54 37 -87.5t92 -33.5q64 0 125 53q-103 90 -172 195q-82 -66 -82 -127zM189 514q0 -50 31 -115q55 37 83.5 68t28.5 70q0 31 -15.5 51.5t-46.5 20.5q-36 0 -58.5 -27t-22.5 -68zM594 56l-22 -68q-73 21 -151 75q-83 -75 -189 -75q-89 0 -144.5 51t-55.5 131 q0 60 34.5 103.5t94.5 85.5q-43 86 -43 154q0 66 42.5 110.5t109.5 44.5q60 0 94.5 -35.5t34.5 -94.5q0 -31 -11.5 -58t-36.5 -52.5t-44.5 -41.5t-55.5 -42q62 -97 166 -184q63 85 92 194h77q-42 -138 -115 -235q70 -48 123 -63z"/>
<glyph unicode="&apos;" horiz-adv-x="249" glyph-name="quotesingle" d="M99 431l-16 167l-3 92h88l-3 -92l-16 -167h-50z"/>
<glyph unicode="(" horiz-adv-x="303" glyph-name="parenleft" d="M214 -176q-132 213 -132 454t132 454l51 -24q-115 -190 -115 -430t115 -430z"/>
<glyph unicode=")" horiz-adv-x="303" glyph-name="parenright" d="M89 -176l-51 24q115 190 115 430t-115 430l51 24q132 -213 132 -454t-132 -454z"/>
<glyph unicode="*" horiz-adv-x="418" glyph-name="asterisk" d="M138 420l-40 29l57 94l-97 40l15 46l102 -25l9 108h49l9 -107l103 24l15 -46l-97 -40l56 -94l-39 -29l-71 86z"/>
<glyph unicode="+" d="M216 104v195h-182v62h182v195h65v-195h182v-62h-182v-195h-65z" glyph-name="plus"/>
<glyph unicode="," horiz-adv-x="249" glyph-name="comma" d="M67 -170l-20 48q90 40 90 122q-3 -1 -10 -1q-25 0 -42 15t-17 42q0 26 17.5 42t43.5 16q32 0 50.5 -26t18.5 -71q0 -64 -34.5 -112.5t-96.5 -74.5z"/>
<glyph unicode="-" horiz-adv-x="311" glyph-name="hyphen" d="M41 219v63h230v-63h-230z"/>
<glyph unicode="." horiz-adv-x="249" glyph-name="period" d="M125 -12q-25 0 -42.5 17.5t-17.5 44.5q0 28 17.5 46t42.5 18t42 -18t17 -46q0 -27 -17.5 -44.5t-41.5 -17.5z"/>
<glyph unicode="/" horiz-adv-x="350" glyph-name="slash" d="M10 -160l267 870h60l-267 -870h-60z"/>
<glyph unicode="0" d="M249 -12q-97 0 -151 87t-54 246t54 244t151 85q96 0 150 -85t54 -244t-54 -246t-150 -87zM249 54q58 0 91 66t33 201q0 263 -124 263q-125 0 -125 -263q0 -135 33 -201t92 -66z" glyph-name="zero"/>
<glyph unicode="1" d="M79 0v68h146v470h-116v53q80 14 135 47h63v-570h132v-68h-360z" glyph-name="one"/>
<glyph unicode="2" d="M40 0v49q83 83 129.5 132t90.5 103.5t62 95t18 78.5q0 57 -31 91t-90 34q-70 0 -136 -77l-47 47q89 97 193 97q88 0 139.5 -51.5t51.5 -136.5q0 -82 -61.5 -168t-198.5 -229q70 6 107 6h185v-71h-412z" glyph-name="two"/>
<glyph unicode="3" d="M236 -12q-128 0 -210 90l42 54q72 -76 163 -76q58 0 95 32t37 85q0 127 -204 127v63q181 0 181 119q0 47 -29.5 74t-80.5 27q-71 0 -136 -65l-44 52q85 80 183 80q85 0 138 -43t53 -119q0 -108 -116 -152v-4q61 -14 99.5 -56.5t38.5 -105.5q0 -83 -60 -132.5t-150 -49.5z " glyph-name="three"/>
<glyph unicode="4" d="M104 242h200v185q0 38 5 123h-4q-2 -4 -52 -90zM469 242v-66h-87v-176h-78v176h-287v54l273 408h92v-396h87z" glyph-name="four"/>
<glyph unicode="5" d="M234 -12q-122 0 -209 87l40 54q73 -73 161 -73q60 0 100 40.5t40 105.5t-37 102.5t-99 37.5q-50 0 -109 -39l-44 28l21 307h319v-71h-247l-17 -189q49 26 98 26q87 0 142.5 -50.5t55.5 -149.5t-63.5 -157.5t-151.5 -58.5z" glyph-name="five"/>
<glyph unicode="6" d="M268 53q48 0 79.5 39t31.5 101q0 64 -30 99.5t-88 35.5q-73 0 -133 -84q8 -93 43.5 -142t96.5 -49zM445 582l-46 -51q-42 50 -105 50q-73 0 -119 -64.5t-49 -206.5q30 37 70 58.5t79 21.5q85 0 133.5 -50.5t48.5 -146.5q0 -90 -55 -147.5t-134 -57.5q-98 0 -159 79.5 t-61 227.5q0 180 69 267.5t174 87.5q91 0 154 -68z" glyph-name="six"/>
<glyph unicode="7" d="M177 0q8 181 49.5 309t135.5 258h-318v71h411v-51q-108 -138 -146 -262.5t-47 -324.5h-85z" glyph-name="seven"/>
<glyph unicode="8" d="M250 -12q-90 0 -149.5 49.5t-59.5 125.5q0 108 120 172v4q-89 62 -89 147q0 73 51.5 118.5t129.5 45.5q82 0 131 -47.5t49 -122.5q0 -46 -26.5 -86.5t-61.5 -67.5v-4q51 -30 81 -67.5t30 -96.5q0 -73 -57.5 -121.5t-148.5 -48.5zM295 348q67 59 67 128q0 49 -30 81 t-81 32q-45 0 -74 -28.5t-29 -74.5q0 -51 37.5 -80.5t109.5 -57.5zM252 49q55 0 90 31t35 81q0 24 -10.5 44t-22 32.5t-41 28t-44.5 22t-55 22.5q-89 -59 -89 -139q0 -53 39 -87.5t98 -34.5z" glyph-name="eight"/>
<glyph unicode="9" d="M235 310q74 0 134 85q-17 190 -141 190q-47 0 -79 -39t-32 -101q0 -64 30 -99.5t88 -35.5zM51 55l46 52q43 -51 105 -51q74 0 120.5 65t48.5 209q-30 -38 -70 -60t-80 -22q-84 0 -132.5 50.5t-48.5 146.5q0 90 55 147.5t133 57.5q98 0 159 -79t61 -228q0 -180 -69 -267.5 t-174 -87.5q-92 0 -154 67z" glyph-name="nine"/>
<glyph unicode=":" horiz-adv-x="249" glyph-name="colon" d="M125 349q-25 0 -42.5 17.5t-17.5 44.5q0 28 17.5 46t42.5 18t42 -18t17 -46q0 -27 -17.5 -44.5t-41.5 -17.5zM125 -12q-25 0 -42.5 17.5t-17.5 44.5q0 28 17.5 46t42.5 18t42 -18t17 -46q0 -27 -17.5 -44.5t-41.5 -17.5z"/>
<glyph unicode=";" horiz-adv-x="249" glyph-name="semicolon" d="M125 349q-25 0 -42.5 17.5t-17.5 44.5q0 28 17.5 46t42.5 18t42 -18t17 -46q0 -27 -17.5 -44.5t-41.5 -17.5zM67 -170l-20 48q90 40 90 122q-3 -1 -10 -1q-25 0 -42 15t-17 42q0 26 17.5 42t43.5 16q32 0 50.5 -26t18.5 -71q0 -64 -34.5 -112.5t-96.5 -74.5z"/>
<glyph unicode="&lt;" d="M463 131l-429 168v66l429 168v-71l-211 -78l-134 -50v-4l134 -50l211 -78v-71z" glyph-name="less"/>
<glyph unicode="=" d="M34 406v62h429v-62h-429zM34 192v62h429v-62h-429z" glyph-name="equal"/>
<glyph unicode="&gt;" d="M34 131v71l211 78l134 50v4l-134 50l-211 78v71l429 -168v-66z" glyph-name="greater"/>
<glyph unicode="?" horiz-adv-x="425" glyph-name="question" d="M160 198q-6 43 5.5 82t33 68t43.5 55t38.5 55.5t16.5 58.5q0 42 -25.5 69.5t-71.5 27.5q-65 0 -115 -58l-47 43q73 83 172 83q76 0 121.5 -43t45.5 -117q0 -36 -16.5 -70t-39.5 -61t-45 -55t-35 -63.5t-9 -74.5h-72zM198 -12q-25 0 -42 17.5t-17 44.5q0 28 17 46t42 18 t42.5 -18t17.5 -46q0 -27 -17.5 -44.5t-42.5 -17.5z"/>
<glyph unicode="@" horiz-adv-x="847" glyph-name="at" d="M403 -155q-153 0 -252.5 94.5t-99.5 263.5q0 196 122 319.5t295 123.5q150 0 239 -91t89 -240q0 -123 -62 -194.5t-138 -71.5q-42 0 -70 19.5t-33 56.5h-2q-58 -68 -122 -68q-53 0 -86.5 37.5t-33.5 103.5q0 86 54.5 159t137.5 73q54 0 80 -48h2l11 40h55l-39 -200 q-30 -117 54 -117q51 0 92.5 57.5t41.5 149.5q0 125 -72 202t-205 77q-140 0 -245 -108t-105 -277q0 -143 83.5 -224.5t214.5 -81.5q84 0 162 45l22 -49q-85 -51 -190 -51zM385 113q43 0 92 59l29 159q-26 42 -64 42q-56 0 -91.5 -54t-35.5 -116q0 -46 19 -68t51 -22z"/>
<glyph unicode="A" horiz-adv-x="544" glyph-name="A" d="M172 267h197l-31 100q-31 94 -66 221h-4q-31 -117 -65 -221zM452 0l-62 200h-239l-63 -200h-85l222 656h94l222 -656h-89z"/>
<glyph unicode="B" horiz-adv-x="588" glyph-name="B" d="M90 0v656h195q225 0 225 -160q0 -50 -25.5 -89t-70.5 -54v-4q62 -12 98 -52t36 -105q0 -94 -67.5 -143t-181.5 -49h-209zM173 377h97q158 0 158 108q0 56 -38 80.5t-116 24.5h-101v-213zM173 66h114q179 0 179 129q0 118 -179 118h-114v-247z"/>
<glyph unicode="C" horiz-adv-x="571" glyph-name="C" d="M338 -12q-126 0 -206 91.5t-80 248.5q0 155 81.5 247.5t209.5 92.5q108 0 180 -81l-45 -54q-59 62 -134 62q-93 0 -149.5 -71.5t-56.5 -193.5q0 -124 55 -196.5t148 -72.5q84 0 152 74l46 -52q-82 -95 -201 -95z"/>
<glyph unicode="D" horiz-adv-x="615" glyph-name="D" d="M90 0v656h164q151 0 230.5 -84t79.5 -241q0 -158 -79 -244.5t-227 -86.5h-168zM173 68h75q113 0 171.5 68.5t58.5 194.5q0 125 -58 191t-172 66h-75v-520z"/>
<glyph unicode="E" horiz-adv-x="527" glyph-name="E" d="M90 0v656h378v-70h-295v-206h249v-71h-249v-238h305v-71h-388z"/>
<glyph unicode="F" horiz-adv-x="494" glyph-name="F" d="M90 0v656h378v-70h-295v-222h250v-70h-250v-294h-83z"/>
<glyph unicode="G" horiz-adv-x="617" glyph-name="G" d="M348 -12q-132 0 -214 91t-82 249q0 156 84 248t217 92q112 0 189 -81l-46 -54q-60 62 -141 62q-99 0 -158 -71.5t-59 -193.5q0 -125 57 -197t161 -72q76 0 118 39v171h-139v69h215v-276q-73 -76 -202 -76z"/>
<glyph unicode="H" horiz-adv-x="652" glyph-name="H" d="M90 0v656h83v-275h305v275h84v-656h-84v309h-305v-309h-83z"/>
<glyph unicode="I" horiz-adv-x="263" glyph-name="I" d="M90 0v656h83v-656h-83z"/>
<glyph unicode="J" horiz-adv-x="480" glyph-name="J" d="M212 -12q-123 0 -181 105l60 42q41 -74 113 -74q53 0 79 33t26 107v455h84v-463q0 -91 -45 -148t-136 -57z"/>
<glyph unicode="K" horiz-adv-x="579" glyph-name="K" d="M90 0v656h83v-329h3l273 329h94l-205 -250l237 -406h-93l-196 341l-113 -133v-208h-83z"/>
<glyph unicode="L" horiz-adv-x="486" glyph-name="L" d="M90 0v656h83v-585h287v-71h-370z"/>
<glyph unicode="M" horiz-adv-x="727" glyph-name="M" d="M90 0v656h100l126 -350q8 -23 23.5 -68.5t23.5 -68.5h4q8 23 22.5 68.5t22.5 68.5l124 350h101v-656h-78v361q0 35 11 194h-4l-52 -149l-124 -340h-55l-124 340l-52 149h-4q10 -145 10 -194v-361h-75z"/>
<glyph unicode="N" horiz-adv-x="647" glyph-name="N" d="M90 0v656h86l237 -412l71 -136h4q-10 165 -10 209v339h79v-656h-86l-238 413l-71 135h-4q11 -145 11 -205v-343h-79z"/>
<glyph unicode="O" horiz-adv-x="664" glyph-name="O" d="M332 -12q-125 0 -202.5 93t-77.5 250q0 155 77.5 246t202.5 91t203 -91t78 -246q0 -157 -78 -250t-203 -93zM332 61q88 0 141 73.5t53 196.5q0 122 -53 193t-141 71t-141 -71t-53 -193q0 -123 53 -196.5t141 -73.5z"/>
<glyph unicode="P" horiz-adv-x="566" glyph-name="P" d="M90 0v656h187q246 0 246 -193q0 -100 -65 -151.5t-177 -51.5h-108v-260h-83zM173 328h98q86 0 127.5 33t41.5 102t-42 97.5t-131 28.5h-94v-261z"/>
<glyph unicode="Q" horiz-adv-x="664" glyph-name="Q" d="M138 331q0 -126 53 -200t141 -74t141 74t53 200q0 122 -53 193t-141 71t-141 -71t-53 -193zM611 -86l16 -64q-38 -15 -94 -15q-87 0 -149.5 42.5t-92.5 113.5q-109 15 -174 106t-65 234q0 155 77.5 246t202.5 91t203 -91t78 -246q0 -140 -63 -230.5t-169 -108.5 q45 -87 161 -87q37 0 69 9z"/>
<glyph unicode="R" horiz-adv-x="569" glyph-name="R" d="M173 589v-244h110q159 0 159 127q0 62 -40 89.5t-119 27.5h-110zM544 0h-94l-158 277h-119v-277h-83v656h205q230 0 230 -184q0 -74 -39 -121.5t-108 -64.5z"/>
<glyph unicode="S" horiz-adv-x="534" glyph-name="S" d="M272 -12q-136 0 -230 97l50 58q79 -82 181 -82q64 0 100.5 29t36.5 78q0 24 -7 41.5t-25.5 31.5t-32.5 21.5t-44 21.5l-94 41q-133 56 -133 169q0 75 58.5 124.5t147.5 49.5q115 0 194 -81l-45 -54q-65 62 -149 62q-55 0 -88.5 -26t-33.5 -70q0 -22 8.5 -39.5t27.5 -31 t33 -20.5t40 -18l93 -40q65 -28 100 -68t35 -107q0 -80 -61 -133.5t-162 -53.5z"/>
<glyph unicode="T" horiz-adv-x="536" glyph-name="T" d="M226 0v586h-198v70h480v-70h-198v-586h-84z"/>
<glyph unicode="U" horiz-adv-x="645" glyph-name="U" d="M323 -12q-109 0 -172.5 67t-63.5 216v385h83v-387q0 -208 153 -208q155 0 155 208v387h80v-385q0 -283 -235 -283z"/>
<glyph unicode="V" horiz-adv-x="515" glyph-name="V" d="M210 0l-210 656h89l105 -354q10 -32 30 -103.5t34 -113.5h4q14 44 35 118t28 99l105 354h85l-208 -656h-97z"/>
<glyph unicode="W" horiz-adv-x="786" glyph-name="W" d="M162 0l-139 656h86l69 -357q6 -36 19 -106t19 -106h4q8 39 24 111t22 101l91 357h76l91 -357q8 -35 48 -212h4q24 142 37 212l69 357h80l-136 -656h-100l-99 395q-17 71 -32 149h-4q-6 -29 -17.5 -80.5t-15.5 -68.5l-97 -395h-99z"/>
<glyph unicode="X" horiz-adv-x="513" glyph-name="X" d="M15 0l191 339l-178 317h92l89 -168q14 -25 51 -95h4q29 61 47 95l87 168h88l-179 -321l191 -335h-92l-96 177q-5 9 -24.5 45.5t-31.5 59.5h-4q-10 -20 -52 -105l-95 -177h-88z"/>
<glyph unicode="Y" horiz-adv-x="476" glyph-name="Y" d="M196 0v254l-197 402h89l85 -185q46 -105 63 -143h4q57 122 66 143l84 185h87l-197 -402v-254h-84z"/>
<glyph unicode="Z" horiz-adv-x="539" glyph-name="Z" d="M45 0v50l345 536h-314v70h418v-49l-346 -536h349v-71h-452z"/>
<glyph unicode="[" horiz-adv-x="303" glyph-name="bracketleft" d="M94 -152v860h179v-47h-117v-766h117v-47h-179z"/>
<glyph unicode="\" horiz-adv-x="350" glyph-name="backslash" d="M281 -160l-267 870h59l267 -870h-59z"/>
<glyph unicode="]" horiz-adv-x="303" glyph-name="bracketright" d="M31 -152v47h116v766h-116v47h178v-860h-178z"/>
<glyph unicode="^" d="M60 284l152 386h73l152 -386h-72l-65 176l-49 133h-4l-50 -133l-65 -176h-72z" glyph-name="asciicircum"/>
<glyph unicode="_" horiz-adv-x="500" glyph-name="underscore" d="M12 -126v55h476v-55h-476z"/>
<glyph unicode="`" horiz-adv-x="542" glyph-name="grave" d="M260 573l-118 161h97l94 -161h-73z"/>
<glyph unicode="a" horiz-adv-x="504" glyph-name="a" d="M194 -12q-62 0 -102 37t-40 101q0 79 71 122t227 60q0 122 -100 122q-69 0 -145 -52l-32 57q98 63 191 63q86 0 127.5 -52.5t41.5 -147.5v-298h-68l-7 58h-3q-85 -70 -161 -70zM218 54q59 0 132 65v135q-118 -15 -168 -44.5t-50 -77.5q0 -39 24 -58.5t62 -19.5z"/>
<glyph unicode="b" horiz-adv-x="553" glyph-name="b" d="M297 -12q-71 0 -139 62h-3l-7 -50h-66v712h82v-194l-2 -88q77 68 152 68q93 0 143 -66t50 -181q0 -120 -61.5 -191.5t-148.5 -71.5zM283 57q61 0 100 52.5t39 140.5q0 179 -128 179q-59 0 -130 -66v-255q59 -51 119 -51z"/>
<glyph unicode="c" horiz-adv-x="456" glyph-name="c" d="M274 -12q-100 0 -164 68t-64 186t68 187t166 69q79 0 142 -57l-42 -54q-48 43 -97 43q-66 0 -109 -52.5t-43 -135.5t41.5 -134.5t108.5 -51.5q60 0 114 49l36 -55q-70 -62 -157 -62z"/>
<glyph unicode="d" horiz-adv-x="555" glyph-name="d" d="M248 -12q-93 0 -147 67t-54 187q0 115 62 185.5t149 70.5q67 0 136 -56l-4 83v187h83v-712h-68l-7 57h-3q-71 -69 -147 -69zM266 57q64 0 124 67v254q-57 51 -118 51q-59 0 -99.5 -52t-40.5 -134q0 -87 35.5 -136.5t98.5 -49.5z"/>
<glyph unicode="e" horiz-adv-x="496" glyph-name="e" d="M279 -12q-100 0 -166.5 69t-66.5 185q0 114 65 185t153 71q92 0 143 -61.5t51 -166.5q0 -29 -3 -47h-328q5 -77 48.5 -123t113.5 -46q62 0 121 38l29 -54q-78 -50 -160 -50zM126 282h260q0 73 -31.5 112t-88.5 39q-53 0 -93 -40.5t-47 -110.5z"/>
<glyph unicode="f" horiz-adv-x="292" glyph-name="f" d="M319 708l-18 -63q-27 12 -55 12q-68 0 -68 -94v-77h103v-67h-103v-419h-82v419h-66v62l66 5v77q0 76 35.5 118.5t106.5 42.5q42 0 81 -16z"/>
<glyph unicode="g" horiz-adv-x="504" glyph-name="g" d="M246 -224q-91 0 -146 34.5t-55 96.5t71 110v4q-43 27 -43 79q0 54 53 90v4q-63 51 -63 131q0 77 53 125t130 48q38 0 69 -12h169v-63h-100q40 -38 40 -100q0 -76 -51 -122.5t-127 -46.5q-39 0 -73 17q-31 -27 -31 -58q0 -53 86 -53h94q86 0 128 -28t42 -88 q0 -70 -68 -119t-178 -49zM246 209q43 0 73 32t30 84t-29.5 82.5t-73.5 30.5t-73.5 -30.5t-29.5 -82.5t30 -84t73 -32zM258 -167q67 0 110.5 29.5t43.5 69.5q0 33 -24.5 46.5t-73.5 13.5h-84q-35 0 -63 8q-50 -36 -50 -82q0 -39 37.5 -62t103.5 -23z"/>
<glyph unicode="h" horiz-adv-x="544" glyph-name="h" d="M82 0v712h82v-194l-3 -100q84 80 162 80q148 0 148 -190v-308h-82v297q0 68 -22 99t-70 31q-35 0 -64 -17.5t-69 -57.5v-352h-82z"/>
<glyph unicode="i" horiz-adv-x="246" glyph-name="i" d="M82 0v486h82v-486h-82zM124 586q-24 0 -40.5 15t-16.5 38q0 24 16.5 38.5t40.5 14.5t40.5 -14.5t16.5 -38.5q0 -23 -16.5 -38t-40.5 -15z"/>
<glyph unicode="j" horiz-adv-x="247" glyph-name="j" d="M32 -217q-40 0 -72 13l17 62q24 -8 46 -8q34 0 47 23.5t13 71.5v541h82v-541q0 -162 -133 -162zM125 586q-24 0 -40.5 15t-16.5 38q0 24 16.5 38.5t40.5 14.5t40 -14.5t16 -38.5q0 -23 -16 -38t-40 -15z"/>
<glyph unicode="k" horiz-adv-x="495" glyph-name="k" d="M82 0v712h81v-482h3l207 256h91l-163 -195l185 -291h-90l-142 234l-91 -106v-128h-81z"/>
<glyph unicode="l" horiz-adv-x="255" glyph-name="l" d="M169 -12q-87 0 -87 110v614h82v-620q0 -36 23 -36q9 0 18 2l11 -62q-18 -8 -47 -8z"/>
<glyph unicode="m" horiz-adv-x="829" glyph-name="m" d="M82 0v486h68l7 -70h3q75 82 151 82q102 0 134 -93q86 93 160 93q148 0 148 -190v-308h-82v297q0 68 -22 99t-68 31q-55 0 -122 -75v-352h-82v297q0 68 -22 99t-69 31q-54 0 -122 -75v-352h-82z"/>
<glyph unicode="n" horiz-adv-x="547" glyph-name="n" d="M82 0v486h68l7 -70h3q82 82 163 82q148 0 148 -190v-308h-82v297q0 68 -22 99t-70 31q-35 0 -64 -17.5t-69 -57.5v-352h-82z"/>
<glyph unicode="o" horiz-adv-x="542" glyph-name="o" d="M271 -12q-94 0 -159.5 69t-65.5 185q0 118 65.5 187t159.5 69t159.5 -69t65.5 -187q0 -116 -65.5 -185t-159.5 -69zM271 56q63 0 101.5 51.5t38.5 134.5q0 84 -38.5 136t-101.5 52q-62 0 -101 -52t-39 -136q0 -83 39 -134.5t101 -51.5z"/>
<glyph unicode="p" horiz-adv-x="555" glyph-name="p" d="M82 -205v691h68l7 -56h3q81 68 155 68q92 0 142 -66.5t50 -181.5q0 -119 -61.5 -190.5t-148.5 -71.5q-63 0 -135 56l2 -85v-164h-82zM283 57q61 0 100 52.5t39 140.5q0 179 -128 179q-56 0 -130 -66v-255q61 -51 119 -51z"/>
<glyph unicode="q" horiz-adv-x="555" glyph-name="q" d="M390 -205v173l4 88q-70 -68 -146 -68q-93 0 -147 67t-54 187q0 115 62 185.5t149 70.5q72 0 139 -58h2l8 46h66v-691h-83zM266 57q64 0 124 67v254q-57 51 -118 51q-59 0 -99.5 -52t-40.5 -134q0 -87 35.5 -136.5t98.5 -49.5z"/>
<glyph unicode="r" horiz-adv-x="347" glyph-name="r" d="M82 0v486h68l7 -88h3q25 47 61 73.5t77 26.5q29 0 52 -10l-16 -72q-26 8 -47 8q-34 0 -67 -27t-56 -85v-312h-82z"/>
<glyph unicode="s" horiz-adv-x="419" glyph-name="s" d="M209 -12q-100 0 -181 67l41 55q72 -58 143 -58q46 0 71 21.5t25 54.5q0 18 -9 32t-28 25.5t-33 18t-41 16.5q-32 11 -53 21t-44.5 27t-35.5 40t-12 52q0 60 45 99t122 39q83 0 151 -55l-39 -52q-57 43 -111 43q-43 0 -66 -20t-23 -50q0 -20 16.5 -36.5t31 -23.5t50.5 -20 q7 -3 10 -4q28 -11 43 -17t38.5 -19.5t35.5 -27t21.5 -35t9.5 -48.5q0 -62 -47.5 -103.5t-130.5 -41.5z"/>
<glyph unicode="t" horiz-adv-x="338" glyph-name="t" d="M235 -12q-139 0 -139 162v269h-72v62l76 5l10 136h69v-136h131v-67h-131v-270q0 -47 17 -70.5t58 -23.5q20 0 55 13l16 -62q-54 -18 -90 -18z"/>
<glyph unicode="u" horiz-adv-x="544" glyph-name="u" d="M224 -12q-149 0 -149 190v308h83v-297q0 -68 21.5 -99t69.5 -31q37 0 66 19t65 63v345h82v-486h-68l-7 76h-3q-75 -88 -160 -88z"/>
<glyph unicode="v" horiz-adv-x="467" glyph-name="v" d="M187 0l-175 486h85l92 -276q14 -47 45 -143h4q4 13 20 64t24 79l92 276h81l-172 -486h-96z"/>
<glyph unicode="w" horiz-adv-x="718" glyph-name="w" d="M159 0l-135 486h84l72 -281q12 -51 29 -135h4q4 15 10.5 42.5t12 50t10.5 42.5l75 281h80l76 -281q16 -61 34 -135h4q6 24 30 135l71 281h78l-130 -486h-100l-70 261q-7 26 -17.5 73t-15.5 67h-4q-23 -101 -34 -141l-68 -260h-96z"/>
<glyph unicode="x" horiz-adv-x="446" glyph-name="x" d="M14 0l159 254l-147 232h89l65 -107q33 -57 48 -81h4q24 47 44 81l59 107h86l-147 -241l158 -245h-89l-71 113q-30 52 -53 87h-4q-21 -35 -49 -87l-66 -113h-86z"/>
<glyph unicode="y" horiz-adv-x="467" glyph-name="y" d="M90 -209q-30 0 -57 10l16 65q23 -7 37 -7q75 0 110 104l11 36l-195 487h85l99 -269q20 -56 47 -137h4q8 26 23 76t18 61l87 269h80l-183 -526q-28 -80 -70.5 -124.5t-111.5 -44.5z"/>
<glyph unicode="z" horiz-adv-x="425" glyph-name="z" d="M31 0v44l256 375h-228v67h332v-44l-256 -375h264v-67h-368z"/>
<glyph unicode="{" horiz-adv-x="303" glyph-name="braceleft" d="M228 -152q-62 0 -89.5 29t-27.5 104q0 37 4.5 98.5t4.5 94.5q0 77 -86 78v52q86 1 86 77q0 33 -4.5 95t-4.5 99q0 75 27.5 104t89.5 29h45v-47h-27q-39 0 -53.5 -20.5t-14.5 -70.5q0 -30 3 -88t3 -93q0 -49 -14 -74.5t-46 -34.5v-4q32 -9 46 -35t14 -74q0 -35 -3 -93 t-3 -88q0 -50 14.5 -70.5t53.5 -20.5h27v-47h-45z"/>
<glyph unicode="|" horiz-adv-x="241" glyph-name="bar" d="M92 -250v1000h58v-1000h-58z"/>
<glyph unicode="}" horiz-adv-x="303" glyph-name="braceright" d="M31 -152v47h26q39 0 53.5 20.5t14.5 70.5q0 30 -2.5 88t-2.5 93q0 49 13.5 74.5t45.5 34.5v4q-32 9 -45.5 34.5t-13.5 74.5q0 35 2.5 93t2.5 88q0 50 -14.5 70.5t-53.5 20.5h-26v47h44q62 0 89.5 -29t27.5 -104q0 -37 -4.5 -99t-4.5 -95t20 -54.5t66 -22.5v-52 q-86 -1 -86 -78q0 -33 4.5 -94.5t4.5 -98.5q0 -75 -27.5 -104t-89.5 -29h-44z"/>
<glyph unicode="~" d="M336 257q-34 0 -66 21t-60 42t-51 21q-44 0 -77 -61l-46 33q51 90 125 90q34 0 66 -21t60 -42t51 -21q44 0 77 61l46 -34q-51 -89 -125 -89z" glyph-name="asciitilde"/>
<glyph unicode=" " horiz-adv-x="202" glyph-name="uni00A0"/>
<glyph unicode="¡" horiz-adv-x="289" glyph-name="exclamdown" d="M103 -184l2 94l11 378h57l11 -378l2 -94h-83zM145 372q-25 0 -42.5 18t-17.5 46q0 27 17.5 44.5t42.5 17.5q24 0 41.5 -17.5t17.5 -44.5q0 -28 -17 -46t-42 -18z"/>
<glyph unicode="¢" d="M262 142v335q-55 -13 -87 -57t-32 -110q0 -67 31.5 -111t87.5 -57zM418 185l36 -52q-64 -57 -140 -63v-103h-52v104q-92 11 -146.5 73.5t-54.5 165.5q0 100 56.5 162t144.5 75v106h52v-103q73 -4 131 -58l-40 -52q-44 39 -91 42v-344q56 4 104 47z" glyph-name="cent"/>
<glyph unicode="£" d="M172 71h281v-71h-399v50q50 27 78 75t28 105q0 24 -7 55h-100v52l67 4h18q-27 87 -27 125q0 84 51 134t135 50q94 0 155 -75l-48 -47q-43 53 -101 53q-53 0 -82 -32t-29 -85q0 -39 24 -123h159v-56h-146q5 -30 5 -56q0 -90 -62 -154v-4z" glyph-name="sterling"/>
<glyph unicode="¤" d="M70 103l-44 45l64 65q-36 49 -36 116q0 68 36 117l-64 66l44 45l68 -70q48 37 111 37q62 0 110 -37l68 70l44 -45l-65 -66q37 -50 37 -117q0 -66 -37 -116l65 -65l-44 -45l-68 69q-47 -38 -110 -38q-64 0 -111 38zM249 195q49 0 83.5 37.5t34.5 96.5t-34.5 96.5 t-83.5 37.5q-50 0 -84.5 -37.5t-34.5 -96.5t34.5 -96.5t84.5 -37.5z" glyph-name="currency"/>
<glyph unicode="¥" d="M207 0v158h-162v48h162v65h-162v47h141l-163 320h86l78 -171q11 -25 32 -72t28 -63h4q13 27 34.5 75.5t26.5 59.5l78 171h84l-164 -320h142v-47h-163v-65h163v-48h-163v-158h-82z" glyph-name="yen"/>
<glyph unicode="¦" horiz-adv-x="241" glyph-name="brokenbar" d="M92 291v459h58v-459h-58zM92 -250v464h58v-464h-58z"/>
<glyph unicode="§" d="M320 193q60 28 60 85q0 26 -12.5 46t-35.5 35t-46.5 25.5t-55.5 24.5t-52 26q-61 -34 -61 -87q0 -31 21.5 -55t47.5 -36.5t68.5 -31.5t65.5 -32zM405 627l-40 -53q-57 46 -111 46q-40 0 -59.5 -17.5t-19.5 -45.5q0 -25 20.5 -45t51.5 -33t66.5 -30.5t66.5 -36t51.5 -52 t20.5 -76.5q0 -81 -85 -129q30 -35 30 -82q0 -59 -45.5 -98t-115.5 -39q-107 0 -173 71l50 45q54 -52 123 -52q39 0 62 20t23 49q0 31 -28.5 54t-69 39.5t-81 36.5t-69 56.5t-28.5 87.5q0 81 86 129q-32 34 -32 82q0 55 40 92.5t112 37.5q84 0 154 -57z" glyph-name="section"/>
<glyph unicode="¨" horiz-adv-x="542" glyph-name="dieresis" d="M185 588q-22 0 -35.5 14t-13.5 35t13.5 35t35.5 14q21 0 35 -14t14 -35t-14 -35t-35 -14zM357 588q-21 0 -35 14t-14 35t14 35t35 14q22 0 35.5 -14t13.5 -35t-13.5 -35t-35.5 -14z"/>
<glyph unicode="©" horiz-adv-x="744" glyph-name="copyright" d="M372 -11q-135 0 -229 92.5t-94 241.5q0 148 94 239t229 91t229 -91t94 -239q0 -149 -94 -241.5t-229 -92.5zM372 31q116 0 196 81.5t80 210.5q0 128 -80 208.5t-196 80.5t-196 -80.5t-80 -208.5q0 -129 80 -210.5t196 -81.5zM380 125q-78 0 -130 53.5t-52 144.5 q0 84 54.5 136.5t130.5 52.5q68 0 125 -57l-35 -39q-43 41 -87 41q-54 0 -88 -37.5t-34 -96.5q0 -66 32.5 -104.5t86.5 -38.5q51 0 102 44l30 -42q-66 -57 -135 -57z"/>
<glyph unicode="ª" horiz-adv-x="345" glyph-name="ordfeminine" d="M136 258q-44 0 -71.5 26t-27.5 69q0 52 47.5 80t151.5 38q-2 74 -62 74q-47 0 -101 -34l-23 42q68 43 133 43q115 0 115 -134v-196h-50l-7 37h-4q-51 -45 -101 -45zM154 308q39 0 82 40v85q-138 -16 -138 -75q0 -50 56 -50z"/>
<glyph unicode="«" horiz-adv-x="429" glyph-name="guillemotleft" d="M181 66l-136 155v62l136 155l36 -30l-118 -156l118 -158zM339 66l-136 155v62l136 155l36 -30l-118 -156l118 -158z"/>
<glyph unicode="¬" d="M397 104v195h-363v62h429v-257h-66z" glyph-name="logicalnot"/>
<glyph unicode="­" horiz-adv-x="311" glyph-name="uni00AD" d="M41 219v63h230v-63h-230z"/>
<glyph unicode="®" horiz-adv-x="423" glyph-name="registered" d="M211 319q-79 0 -133.5 55.5t-54.5 141.5t54.5 141.5t133.5 55.5t134 -55.5t55 -141.5t-55 -141.5t-134 -55.5zM211 356q64 0 106.5 45t42.5 115t-42.5 115.5t-106.5 45.5q-63 0 -105.5 -45.5t-42.5 -115.5q0 -71 42 -115.5t106 -44.5zM139 417v203h76q78 0 78 -65 q0 -18 -10.5 -33.5t-26.5 -21.5l46 -83h-46l-35 70h-41v-70h-41zM180 519h26q43 0 43 34q0 33 -41 33h-28v-67z"/>
<glyph unicode="¯" horiz-adv-x="542" glyph-name="macron" d="M145 601v57h252v-57h-252z"/>
<glyph unicode="°" horiz-adv-x="331" glyph-name="degree" d="M166 429q-52 0 -88.5 35.5t-36.5 91.5q0 58 36.5 93.5t88.5 35.5t88.5 -35.5t36.5 -93.5q0 -56 -36.5 -91.5t-88.5 -35.5zM166 475q33 0 54 23t21 58q0 37 -21 60t-54 23t-54 -23t-21 -60q0 -35 21 -58t54 -23z"/>
<glyph unicode="±" d="M216 127v177h-182v62h182v190h65v-190h182v-62h-182v-177h-65zM34 0v62h429v-62h-429z" glyph-name="plusminus"/>
<glyph unicode="²" horiz-adv-x="367" glyph-name="two.sups" d="M52 440v37q104 93 144.5 140.5t40.5 88.5q0 38 -20 60t-55 22q-45 0 -84 -57l-38 35q51 76 130 76q60 0 95 -33t35 -93q0 -27 -9 -52t-34.5 -57t-42 -50t-59.5 -62h165v-55h-268z"/>
<glyph unicode="³" horiz-adv-x="367" glyph-name="three.sups" d="M180 428q-93 0 -145 76l43 33q39 -58 99 -58q33 0 55.5 18.5t22.5 51.5t-31.5 51t-89.5 18v41q49 0 77.5 19.5t28.5 50.5q0 28 -19.5 45t-51.5 17q-41 0 -79 -47l-39 34q56 64 128 64q52 0 88 -28.5t36 -76.5q0 -64 -68 -96q36 -9 60 -34t24 -62q0 -53 -40 -85t-99 -32z "/>
<glyph unicode="´" horiz-adv-x="542" glyph-name="acute" d="M209 573l94 161h97l-118 -161h-73z"/>
<glyph unicode="µ" horiz-adv-x="562" glyph-name="uni00B5" d="M82 -179v665h82v-297q0 -130 89 -130q37 0 67.5 19.5t61.5 75.5v332h83q-1 -44 -2.5 -126.5t-2.5 -147.5t-1 -117q0 -39 36 -39q13 0 29 6l11 -62q-24 -12 -58 -12q-41 0 -62 22.5t-26 71.5h-2q-52 -92 -135 -92q-66 0 -94 47q1 -129 7 -216h-83z"/>
<glyph unicode="¶" horiz-adv-x="560" glyph-name="paragraph" d="M380 -80v736h84v-736h-84zM293 226q-115 0 -183.5 54t-68.5 163q0 112 65 162.5t176 50.5h44v-430h-33z"/>
<glyph unicode="·" horiz-adv-x="249" glyph-name="periodcentered" d="M125 259q-25 0 -42.5 17.5t-17.5 44.5q0 28 17.5 46t42.5 18t42 -18t17 -46q0 -27 -17.5 -44.5t-41.5 -17.5z"/>
<glyph unicode="¸" horiz-adv-x="542" glyph-name="cedilla" d="M190 -213l-8 41q61 4 85 15.5t24 34.5q0 19 -17.5 30t-59.5 17l44 78h53l-29 -53q73 -17 73 -71q0 -83 -165 -92z"/>
<glyph unicode="¹" horiz-adv-x="367" glyph-name="one.sups" d="M172 440v308h-85v42q57 10 97 40h52v-390h-64z"/>
<glyph unicode="º" horiz-adv-x="365" glyph-name="ordmasculine" d="M182 258q-64 0 -108 46t-44 123q0 78 43.5 123.5t108.5 45.5q64 0 108 -45.5t44 -123.5q0 -77 -44 -123t-108 -46zM182 309q41 0 64.5 32.5t23.5 85.5q0 54 -23.5 86t-64.5 32t-65 -32t-24 -86q0 -53 24 -85.5t65 -32.5z"/>
<glyph unicode="»" horiz-adv-x="429" glyph-name="guillemotright" d="M89 66l-35 28l118 158l-118 156l35 30l137 -155v-62zM247 66l-35 28l118 158l-118 156l35 30l137 -155v-62z"/>
<glyph unicode="¼" horiz-adv-x="781" glyph-name="onequarter" d="M212 266h-64v308h-85v42q57 10 97 40h52v-390zM542 668h56l-362 -680h-56zM522 150h111v70l4 109h-4l-50 -81zM749 150v-46h-58v-104h-58v104h-178v33l164 253h72v-240h58z"/>
<glyph unicode="½" horiz-adv-x="808" glyph-name="onehalf" d="M148 266v308h-85v42q57 10 97 40h52v-390h-64zM493 0v37q104 93 144.5 140.5t40.5 88.5q0 38 -20 60t-55 22q-45 0 -84 -57l-38 35q51 76 130 76q60 0 95 -33t35 -93q0 -27 -9 -52t-34.5 -57t-42 -50t-59.5 -62h165v-55h-268zM160 -12l362 680h56l-362 -680h-56z"/>
<glyph unicode="¾" horiz-adv-x="796" glyph-name="threequarters" d="M89 570l-39 34q56 64 128 64q52 0 88 -28.5t36 -76.5q0 -64 -68 -96q36 -9 60 -34t24 -62q0 -53 -40 -85t-99 -32q-93 0 -145 76l43 33q39 -58 99 -58q33 0 55.5 18.5t22.5 51.5t-31.5 51t-89.5 18v41q49 0 77.5 19.5t28.5 50.5q0 28 -19.5 45t-51.5 17q-41 0 -79 -47z M580 668h56l-362 -680h-56zM537 150h111v70l4 109h-4l-50 -81zM764 150v-46h-58v-104h-58v104h-178v33l164 253h72v-240h58z"/>
<glyph unicode="¿" horiz-adv-x="425" glyph-name="questiondown" d="M215 -196q-76 0 -121.5 43t-45.5 117q0 36 16.5 70t39 61t45 55t35.5 63.5t8 74.5h73q6 -43 -5.5 -82t-33 -68t-43.5 -55t-38.5 -55.5t-16.5 -58.5q0 -42 25 -69t72 -27q65 0 114 57l48 -43q-76 -83 -172 -83zM227 372q-25 0 -42.5 18t-17.5 46q0 27 17.5 44.5t42.5 17.5 q24 0 41.5 -17.5t17.5 -44.5q0 -28 -17 -46t-42 -18z"/>
<glyph unicode="À" horiz-adv-x="544" glyph-name="Agrave" d="M325 706h-77l-115 118h102zM172 267h197l-31 100q-31 94 -66 221h-4q-31 -117 -65 -221zM452 0l-62 200h-239l-63 -200h-85l222 656h94l222 -656h-89z"/>
<glyph unicode="Á" horiz-adv-x="544" glyph-name="Aacute" d="M407 824l-115 -118h-77l90 118h102zM172 267h197l-31 100q-31 94 -66 221h-4q-31 -117 -65 -221zM452 0l-62 200h-239l-63 -200h-85l222 656h94l222 -656h-89z"/>
<glyph unicode="Â" horiz-adv-x="544" glyph-name="Acircumflex" d="M268 778l-68 -72h-71l98 118h86l98 -118h-71l-68 72h-4zM172 267h197l-31 100q-31 94 -66 221h-4q-31 -117 -65 -221zM452 0l-62 200h-239l-63 -200h-85l222 656h94l222 -656h-89z"/>
<glyph unicode="Ã" horiz-adv-x="544" glyph-name="Atilde" d="M372 818h56q-4 -49 -29.5 -79t-64.5 -30q-32 0 -71.5 26.5t-55.5 26.5q-33 0 -39 -51h-56q4 49 29.5 79t64.5 30q32 0 71.5 -26.5t55.5 -26.5q33 0 39 51zM172 267h197l-31 100q-31 94 -66 221h-4q-31 -117 -65 -221zM452 0l-62 200h-239l-63 -200h-85l222 656h94 l222 -656h-89z"/>
<glyph unicode="Ä" horiz-adv-x="544" glyph-name="Adieresis" d="M356 715q-21 0 -35 14t-14 35q0 22 14 35.5t35 13.5q22 0 35.5 -13.5t13.5 -35.5q0 -21 -13.5 -35t-35.5 -14zM184 715q-22 0 -35.5 14t-13.5 35q0 22 13.5 35.5t35.5 13.5q21 0 35 -13.5t14 -35.5q0 -21 -14 -35t-35 -14zM172 267h197l-31 100q-31 94 -66 221h-4 q-31 -117 -65 -221zM452 0l-62 200h-239l-63 -200h-85l222 656h94l222 -656h-89z"/>
<glyph unicode="Å" horiz-adv-x="544" glyph-name="Aring" d="M270 838q-21 0 -34.5 -14t-13.5 -37q0 -24 13.5 -38t34.5 -14q20 0 33.5 14t13.5 38q0 23 -14 37t-33 14zM270 699q-41 0 -67 24t-26 64q0 39 26 63.5t67 24.5q40 0 66.5 -24.5t26.5 -63.5q0 -40 -26.5 -64t-66.5 -24zM172 267h197l-31 100q-31 94 -66 221h-4 q-31 -117 -65 -221zM452 0l-62 200h-239l-63 -200h-85l222 656h94l222 -656h-89z"/>
<glyph unicode="Æ" horiz-adv-x="822" glyph-name="AE" d="M229 258h172v332h-4q-53 -107 -107 -214zM485 71h288v-71h-372v191h-206l-99 -191h-88l344 656h411v-70h-278v-206h232v-71h-232v-238z"/>
<glyph unicode="Ç" horiz-adv-x="571" glyph-name="Ccedilla" d="M493 135l46 -52q-72 -83 -169 -93l-22 -40q73 -17 73 -71q0 -83 -165 -92l-8 41q61 4 85 15.5t24 34.5q0 19 -17.5 30t-59.5 17l36 64q-118 8 -191 98.5t-73 240.5q0 155 81.5 247.5t209.5 92.5q108 0 180 -81l-45 -54q-59 62 -134 62q-93 0 -149.5 -71.5t-56.5 -193.5 q0 -124 55 -196.5t148 -72.5q84 0 152 74z"/>
<glyph unicode="È" horiz-adv-x="527" glyph-name="Egrave" d="M90 0v656h378v-70h-295v-206h249v-71h-249v-238h305v-71h-388zM262 706l-115 118h102l90 -118h-77z"/>
<glyph unicode="É" horiz-adv-x="527" glyph-name="Eacute" d="M90 0v656h378v-70h-295v-206h249v-71h-249v-238h305v-71h-388zM229 706l90 118h102l-115 -118h-77z"/>
<glyph unicode="Ê" horiz-adv-x="527" glyph-name="Ecircumflex" d="M143 706l98 118h86l98 -118h-71l-68 72h-4l-68 -72h-71zM90 0v656h378v-70h-295v-206h249v-71h-249v-238h305v-71h-388z"/>
<glyph unicode="Ë" horiz-adv-x="527" glyph-name="Edieresis" d="M198 715q-22 0 -35.5 14t-13.5 35q0 22 13.5 35.5t35.5 13.5q21 0 35 -13.5t14 -35.5q0 -21 -14 -35t-35 -14zM370 715q-21 0 -35 14t-14 35q0 22 14 35.5t35 13.5q22 0 35.5 -13.5t13.5 -35.5q0 -21 -13.5 -35t-35.5 -14zM90 0v656h378v-70h-295v-206h249v-71h-249v-238 h305v-71h-388z"/>
<glyph unicode="Ì" horiz-adv-x="263" glyph-name="Igrave" d="M90 0v656h83v-656h-83zM109 706l-115 118h102l90 -118h-77z"/>
<glyph unicode="Í" horiz-adv-x="263" glyph-name="Iacute" d="M90 0v656h83v-656h-83zM76 706l90 118h102l-115 -118h-77z"/>
<glyph unicode="Î" horiz-adv-x="263" glyph-name="Icircumflex" d="M90 0v656h83v-656h-83zM-10 706l98 118h86l98 -118h-71l-68 72h-4l-68 -72h-71z"/>
<glyph unicode="Ï" horiz-adv-x="263" glyph-name="Idieresis" d="M90 0v656h83v-656h-83zM45 715q-22 0 -35.5 14t-13.5 35q0 22 13.5 35.5t35.5 13.5q21 0 35 -13.5t14 -35.5q0 -21 -14 -35t-35 -14zM217 715q-21 0 -35 14t-14 35q0 22 14 35.5t35 13.5q22 0 35.5 -13.5t13.5 -35.5q0 -21 -13.5 -35t-35.5 -14z"/>
<glyph unicode="Ð" horiz-adv-x="638" glyph-name="Eth" d="M195 68h75q113 0 171.5 68.5t58.5 194.5q0 125 -58 191t-172 66h-75v-220h149v-47h-149v-253zM112 656h164q151 0 230.5 -84t79.5 -241q0 -158 -79 -244.5t-227 -86.5h-168v321h-79v43l79 4v288z"/>
<glyph unicode="Ñ" horiz-adv-x="647" glyph-name="Ntilde" d="M391 709q-32 0 -71.5 26.5t-55.5 26.5q-33 0 -39 -51h-56q4 49 29.5 79t64.5 30q32 0 71.5 -26.5t55.5 -26.5q33 0 39 51h56q-4 -49 -29.5 -79t-64.5 -30zM90 0v656h86l237 -412l71 -136h4q-10 165 -10 209v339h79v-656h-86l-238 413l-71 135h-4q11 -145 11 -205v-343 h-79z"/>
<glyph unicode="Ò" horiz-adv-x="664" glyph-name="Ograve" d="M310 706l-115 118h102l90 -118h-77zM332 -12q-125 0 -202.5 93t-77.5 250q0 155 77.5 246t202.5 91t203 -91t78 -246q0 -157 -78 -250t-203 -93zM332 61q88 0 141 73.5t53 196.5q0 122 -53 193t-141 71t-141 -71t-53 -193q0 -123 53 -196.5t141 -73.5z"/>
<glyph unicode="Ó" horiz-adv-x="664" glyph-name="Oacute" d="M277 706l90 118h102l-115 -118h-77zM332 -12q-125 0 -202.5 93t-77.5 250q0 155 77.5 246t202.5 91t203 -91t78 -246q0 -157 -78 -250t-203 -93zM332 61q88 0 141 73.5t53 196.5q0 122 -53 193t-141 71t-141 -71t-53 -193q0 -123 53 -196.5t141 -73.5z"/>
<glyph unicode="Ô" horiz-adv-x="664" glyph-name="Ocircumflex" d="M191 706l98 118h86l98 -118h-71l-68 72h-4l-68 -72h-71zM332 -12q-125 0 -202.5 93t-77.5 250q0 155 77.5 246t202.5 91t203 -91t78 -246q0 -157 -78 -250t-203 -93zM332 61q88 0 141 73.5t53 196.5q0 122 -53 193t-141 71t-141 -71t-53 -193q0 -123 53 -196.5t141 -73.5 z"/>
<glyph unicode="Õ" horiz-adv-x="664" glyph-name="Otilde" d="M332 -12q-125 0 -202.5 93t-77.5 250q0 155 77.5 246t202.5 91t203 -91t78 -246q0 -157 -78 -250t-203 -93zM332 61q88 0 141 73.5t53 196.5q0 122 -53 193t-141 71t-141 -71t-53 -193q0 -123 53 -196.5t141 -73.5zM396 709q-32 0 -71.5 26.5t-55.5 26.5q-33 0 -39 -51 h-56q4 49 29.5 79t64.5 30q32 0 71.5 -26.5t55.5 -26.5q33 0 39 51h56q-4 -49 -29.5 -79t-64.5 -30z"/>
<glyph unicode="Ö" horiz-adv-x="664" glyph-name="Odieresis" d="M246 715q-22 0 -35.5 14t-13.5 35q0 22 13.5 35.5t35.5 13.5q21 0 35 -13.5t14 -35.5q0 -21 -14 -35t-35 -14zM418 715q-21 0 -35 14t-14 35q0 22 14 35.5t35 13.5q22 0 35.5 -13.5t13.5 -35.5q0 -21 -13.5 -35t-35.5 -14zM332 -12q-125 0 -202.5 93t-77.5 250 q0 155 77.5 246t202.5 91t203 -91t78 -246q0 -157 -78 -250t-203 -93zM332 61q88 0 141 73.5t53 196.5q0 122 -53 193t-141 71t-141 -71t-53 -193q0 -123 53 -196.5t141 -73.5z"/>
<glyph unicode="×" d="M94 126l-44 45l155 159l-155 158l44 45l155 -159l154 159l44 -45l-155 -158l155 -159l-44 -45l-154 160z" glyph-name="multiply"/>
<glyph unicode="Ø" horiz-adv-x="664" glyph-name="Oslash" d="M496 491l-287 -374q50 -56 126 -56q88 0 141 73.5t53 196.5q0 94 -33 160zM174 168l288 373q-51 54 -127 54q-88 0 -141 -71t-53 -193q0 -95 33 -163zM619 651l-69 -89q66 -91 66 -231q0 -157 -78 -250t-203 -93q-104 0 -175 65l-64 -83l-46 36l70 91q-65 94 -65 234 q0 155 77.5 246t202.5 91q104 0 176 -63l62 81z"/>
<glyph unicode="Ù" horiz-adv-x="645" glyph-name="Ugrave" d="M323 -12q-109 0 -172.5 67t-63.5 216v385h83v-387q0 -208 153 -208q155 0 155 208v387h80v-385q0 -283 -235 -283zM301 706l-115 118h102l90 -118h-77z"/>
<glyph unicode="Ú" horiz-adv-x="645" glyph-name="Uacute" d="M323 -12q-109 0 -172.5 67t-63.5 216v385h83v-387q0 -208 153 -208q155 0 155 208v387h80v-385q0 -283 -235 -283zM268 706l90 118h102l-115 -118h-77z"/>
<glyph unicode="Û" horiz-adv-x="645" glyph-name="Ucircumflex" d="M182 706l98 118h86l98 -118h-71l-68 72h-4l-68 -72h-71zM323 -12q-109 0 -172.5 67t-63.5 216v385h83v-387q0 -208 153 -208q155 0 155 208v387h80v-385q0 -283 -235 -283z"/>
<glyph unicode="Ü" horiz-adv-x="645" glyph-name="Udieresis" d="M237 715q-22 0 -35.5 14t-13.5 35q0 22 13.5 35.5t35.5 13.5q21 0 35 -13.5t14 -35.5q0 -21 -14 -35t-35 -14zM409 715q-21 0 -35 14t-14 35q0 22 14 35.5t35 13.5q22 0 35.5 -13.5t13.5 -35.5q0 -21 -13.5 -35t-35.5 -14zM323 -12q-109 0 -172.5 67t-63.5 216v385h83 v-387q0 -208 153 -208q155 0 155 208v387h80v-385q0 -283 -235 -283z"/>
<glyph unicode="Ý" horiz-adv-x="476" glyph-name="Yacute" d="M196 0v254l-197 402h89l85 -185q46 -105 63 -143h4q57 122 66 143l84 185h87l-197 -402v-254h-84zM183 706l90 118h102l-115 -118h-77z"/>
<glyph unicode="Þ" horiz-adv-x="583" glyph-name="Thorn" d="M90 0v656h83v-110h118q242 0 242 -193q0 -101 -65 -152t-177 -51h-118v-150h-83zM173 218h108q86 0 127.5 32.5t41.5 102.5q0 69 -40.5 97t-128.5 28h-108v-260z"/>
<glyph unicode="ß" horiz-adv-x="576" glyph-name="germandbls" d="M387 -12q-74 0 -141 49l33 58q52 -43 106 -43q39 0 61.5 23.5t22.5 56.5q0 32 -20.5 55t-49.5 37.5t-57.5 30.5t-49 43.5t-20.5 65.5q0 30 14 58t30 46.5t30 45t14 54.5q0 39 -21.5 63t-61.5 24q-54 0 -83.5 -39.5t-29.5 -115.5v-500h-82v515q0 95 51.5 151t144.5 56 q76 0 119.5 -42t43.5 -104q0 -34 -14 -64t-31.5 -48.5t-31.5 -42.5t-14 -47q0 -26 20.5 -45.5t49 -34t57.5 -31.5t49.5 -49t20.5 -77q0 -64 -43.5 -106.5t-116.5 -42.5z"/>
<glyph unicode="à" horiz-adv-x="504" glyph-name="agrave" d="M194 -12q-62 0 -102 37t-40 101q0 79 71 122t227 60q0 122 -100 122q-69 0 -145 -52l-32 57q98 63 191 63q86 0 127.5 -52.5t41.5 -147.5v-298h-68l-7 58h-3q-85 -70 -161 -70zM218 54q59 0 132 65v135q-118 -15 -168 -44.5t-50 -77.5q0 -39 24 -58.5t62 -19.5zM252 573 l-118 161h97l94 -161h-73z"/>
<glyph unicode="á" horiz-adv-x="504" glyph-name="aacute" d="M194 -12q-62 0 -102 37t-40 101q0 79 71 122t227 60q0 122 -100 122q-69 0 -145 -52l-32 57q98 63 191 63q86 0 127.5 -52.5t41.5 -147.5v-298h-68l-7 58h-3q-85 -70 -161 -70zM218 54q59 0 132 65v135q-118 -15 -168 -44.5t-50 -77.5q0 -39 24 -58.5t62 -19.5zM201 573 l94 161h97l-118 -161h-73z"/>
<glyph unicode="â" horiz-adv-x="504" glyph-name="acircumflex" d="M194 -12q-62 0 -102 37t-40 101q0 79 71 122t227 60q0 122 -100 122q-69 0 -145 -52l-32 57q98 63 191 63q86 0 127.5 -52.5t41.5 -147.5v-298h-68l-7 58h-3q-85 -70 -161 -70zM218 54q59 0 132 65v135q-118 -15 -168 -44.5t-50 -77.5q0 -39 24 -58.5t62 -19.5zM117 573 l105 161h82l105 -161h-67l-77 108h-4l-77 -108h-67z"/>
<glyph unicode="ã" horiz-adv-x="504" glyph-name="atilde" d="M194 -12q-62 0 -102 37t-40 101q0 79 71 122t227 60q0 122 -100 122q-69 0 -145 -52l-32 57q98 63 191 63q86 0 127.5 -52.5t41.5 -147.5v-298h-68l-7 58h-3q-85 -70 -161 -70zM218 54q59 0 132 65v135q-118 -15 -168 -44.5t-50 -77.5q0 -39 24 -58.5t62 -19.5zM322 571 q-28 0 -66 30t-51 30q-34 0 -41 -58h-55q4 54 28.5 86.5t66.5 32.5q29 0 66.5 -30t50.5 -30q34 0 41 58h55q-4 -54 -28.5 -86.5t-66.5 -32.5z"/>
<glyph unicode="ä" horiz-adv-x="504" glyph-name="adieresis" d="M194 -12q-62 0 -102 37t-40 101q0 79 71 122t227 60q0 122 -100 122q-69 0 -145 -52l-32 57q98 63 191 63q86 0 127.5 -52.5t41.5 -147.5v-298h-68l-7 58h-3q-85 -70 -161 -70zM218 54q59 0 132 65v135q-118 -15 -168 -44.5t-50 -77.5q0 -39 24 -58.5t62 -19.5zM177 588 q-22 0 -35.5 14t-13.5 35t13.5 35t35.5 14q21 0 35 -14t14 -35t-14 -35t-35 -14zM349 588q-21 0 -35 14t-14 35t14 35t35 14q22 0 35.5 -14t13.5 -35t-13.5 -35t-35.5 -14z"/>
<glyph unicode="å" horiz-adv-x="504" glyph-name="aring" d="M194 -12q-62 0 -102 37t-40 101q0 79 71 122t227 60q0 122 -100 122q-69 0 -145 -52l-32 57q98 63 191 63q86 0 127.5 -52.5t41.5 -147.5v-298h-68l-7 58h-3q-85 -70 -161 -70zM218 54q59 0 132 65v135q-118 -15 -168 -44.5t-50 -77.5q0 -39 24 -58.5t62 -19.5zM263 542 q-41 0 -67 25.5t-26 67.5q0 41 26 66.5t67 25.5t67 -25.5t26 -66.5q0 -42 -26 -67.5t-67 -25.5zM263 579q21 0 34.5 15.5t13.5 40.5q0 24 -13.5 39.5t-34.5 15.5t-34.5 -15.5t-13.5 -39.5q0 -25 13.5 -40.5t34.5 -15.5z"/>
<glyph unicode="æ" horiz-adv-x="785" glyph-name="ae" d="M201 -12q-63 0 -103 37t-40 101q0 79 70.5 122t223.5 60q0 122 -99 122q-65 0 -141 -52l-33 57q98 63 184 63q106 0 139 -103q62 103 160 103q88 0 136.5 -61.5t48.5 -167.5q0 -28 -3 -46h-315q3 -75 45.5 -121.5t105.5 -46.5q55 0 118 40l30 -57q-78 -50 -158 -50 q-101 0 -171 91q-102 -91 -198 -91zM224 54q35 0 75 20t72 55q-17 39 -19 100v25q-113 -15 -163 -44.5t-50 -77.5q0 -39 23.5 -58.5t61.5 -19.5zM429 278h246q0 75 -29.5 115t-85.5 40q-51 0 -87.5 -42.5t-43.5 -112.5z"/>
<glyph unicode="ç" horiz-adv-x="456" glyph-name="ccedilla" d="M299 -11l-22 -39q73 -17 73 -71q0 -83 -165 -92l-8 41q61 4 85 15.5t24 34.5q0 19 -17.5 30t-59.5 17l36 65q-88 9 -143.5 76t-55.5 176q0 118 68 187t166 69q79 0 142 -57l-42 -54q-48 43 -97 43q-66 0 -109 -52.5t-43 -135.5t41.5 -134.5t108.5 -51.5q60 0 114 49 l36 -55q-60 -52 -132 -61z"/>
<glyph unicode="è" horiz-adv-x="496" glyph-name="egrave" d="M253 573l-118 161h97l94 -161h-73zM279 -12q-100 0 -166.5 69t-66.5 185q0 114 65 185t153 71q92 0 143 -61.5t51 -166.5q0 -29 -3 -47h-328q5 -77 48.5 -123t113.5 -46q62 0 121 38l29 -54q-78 -50 -160 -50zM126 282h260q0 73 -31.5 112t-88.5 39q-53 0 -93 -40.5 t-47 -110.5z"/>
<glyph unicode="é" horiz-adv-x="496" glyph-name="eacute" d="M202 573l94 161h97l-118 -161h-73zM279 -12q-100 0 -166.5 69t-66.5 185q0 114 65 185t153 71q92 0 143 -61.5t51 -166.5q0 -29 -3 -47h-328q5 -77 48.5 -123t113.5 -46q62 0 121 38l29 -54q-78 -50 -160 -50zM126 282h260q0 73 -31.5 112t-88.5 39q-53 0 -93 -40.5 t-47 -110.5z"/>
<glyph unicode="ê" horiz-adv-x="496" glyph-name="ecircumflex" d="M118 573l105 161h82l105 -161h-67l-77 108h-4l-77 -108h-67zM279 -12q-100 0 -166.5 69t-66.5 185q0 114 65 185t153 71q92 0 143 -61.5t51 -166.5q0 -29 -3 -47h-328q5 -77 48.5 -123t113.5 -46q62 0 121 38l29 -54q-78 -50 -160 -50zM126 282h260q0 73 -31.5 112 t-88.5 39q-53 0 -93 -40.5t-47 -110.5z"/>
<glyph unicode="ë" horiz-adv-x="496" glyph-name="edieresis" d="M279 -12q-100 0 -166.5 69t-66.5 185q0 114 65 185t153 71q92 0 143 -61.5t51 -166.5q0 -29 -3 -47h-328q5 -77 48.5 -123t113.5 -46q62 0 121 38l29 -54q-78 -50 -160 -50zM126 282h260q0 73 -31.5 112t-88.5 39q-53 0 -93 -40.5t-47 -110.5zM178 588q-22 0 -35.5 14 t-13.5 35t13.5 35t35.5 14q21 0 35 -14t14 -35t-14 -35t-35 -14zM350 588q-21 0 -35 14t-14 35t14 35t35 14q22 0 35.5 -14t13.5 -35t-13.5 -35t-35.5 -14z"/>
<glyph unicode="ì" horiz-adv-x="246" glyph-name="igrave" d="M112 573l-118 161h97l94 -161h-73zM82 0v486h82v-486h-82z"/>
<glyph unicode="í" horiz-adv-x="246" glyph-name="iacute" d="M61 573l94 161h97l-118 -161h-73zM82 0v486h82v-486h-82z"/>
<glyph unicode="î" horiz-adv-x="246" glyph-name="icircumflex" d="M-23 573l105 161h82l105 -161h-67l-77 108h-4l-77 -108h-67zM82 0v486h82v-486h-82z"/>
<glyph unicode="ï" horiz-adv-x="246" glyph-name="idieresis" d="M82 0v486h82v-486h-82zM37 588q-22 0 -35.5 14t-13.5 35t13.5 35t35.5 14q21 0 35 -14t14 -35t-14 -35t-35 -14zM209 588q-21 0 -35 14t-14 35t14 35t35 14q22 0 35.5 -14t13.5 -35t-13.5 -35t-35.5 -14z"/>
<glyph unicode="ð" horiz-adv-x="545" glyph-name="eth" d="M271 56q66 0 100.5 53.5t34.5 144.5q0 21 -2 55q-55 74 -133 74q-65 0 -102.5 -45t-37.5 -116q0 -73 41 -119.5t99 -46.5zM478 671l-129 -66q136 -138 136 -348q0 -120 -59.5 -194.5t-156.5 -74.5q-89 0 -152.5 64.5t-63.5 169.5q0 100 58.5 162.5t147.5 62.5 q84 0 134 -66q-24 111 -107 192l-141 -73l-24 41l127 65q-52 40 -112 72l38 52q83 -45 138 -91l142 73z"/>
<glyph unicode="ñ" horiz-adv-x="547" glyph-name="ntilde" d="M351 571q-29 0 -66 30t-51 30q-34 0 -41 -58h-55q4 54 28.5 86.5t66.5 32.5q29 0 66.5 -30t50.5 -30q34 0 41 58h55q-4 -54 -28.5 -86.5t-66.5 -32.5zM82 0v486h68l7 -70h3q82 82 163 82q148 0 148 -190v-308h-82v297q0 68 -22 99t-70 31q-35 0 -64 -17.5t-69 -57.5v-352 h-82z"/>
<glyph unicode="ò" horiz-adv-x="542" glyph-name="ograve" d="M260 573l-118 161h97l94 -161h-73zM270 -12q-94 0 -159.5 69t-65.5 185q0 118 65.5 187t159.5 69t159.5 -69t65.5 -187q0 -116 -65.5 -185t-159.5 -69zM270 56q63 0 101.5 51.5t38.5 134.5q0 84 -38.5 136t-101.5 52q-62 0 -101 -52t-39 -136q0 -83 39 -134.5t101 -51.5z "/>
<glyph unicode="ó" horiz-adv-x="542" glyph-name="oacute" d="M209 573l94 161h97l-118 -161h-73zM270 -12q-94 0 -159.5 69t-65.5 185q0 118 65.5 187t159.5 69t159.5 -69t65.5 -187q0 -116 -65.5 -185t-159.5 -69zM270 56q63 0 101.5 51.5t38.5 134.5q0 84 -38.5 136t-101.5 52q-62 0 -101 -52t-39 -136q0 -83 39 -134.5t101 -51.5z "/>
<glyph unicode="ô" horiz-adv-x="542" glyph-name="ocircumflex" d="M125 573l105 161h82l105 -161h-67l-77 108h-4l-77 -108h-67zM270 -12q-94 0 -159.5 69t-65.5 185q0 118 65.5 187t159.5 69t159.5 -69t65.5 -187q0 -116 -65.5 -185t-159.5 -69zM270 56q63 0 101.5 51.5t38.5 134.5q0 84 -38.5 136t-101.5 52q-62 0 -101 -52t-39 -136 q0 -83 39 -134.5t101 -51.5z"/>
<glyph unicode="õ" horiz-adv-x="542" glyph-name="otilde" d="M330 571q-28 0 -66 30t-51 30q-34 0 -41 -58h-55q4 54 28.5 86.5t66.5 32.5q29 0 66.5 -30t50.5 -30q34 0 41 58h55q-4 -54 -28.5 -86.5t-66.5 -32.5zM270 -12q-94 0 -159.5 69t-65.5 185q0 118 65.5 187t159.5 69t159.5 -69t65.5 -187q0 -116 -65.5 -185t-159.5 -69z M270 56q63 0 101.5 51.5t38.5 134.5q0 84 -38.5 136t-101.5 52q-62 0 -101 -52t-39 -136q0 -83 39 -134.5t101 -51.5z"/>
<glyph unicode="ö" horiz-adv-x="542" glyph-name="odieresis" d="M185 588q-22 0 -35.5 14t-13.5 35t13.5 35t35.5 14q21 0 35 -14t14 -35t-14 -35t-35 -14zM357 588q-21 0 -35 14t-14 35t14 35t35 14q22 0 35.5 -14t13.5 -35t-13.5 -35t-35.5 -14zM270 -12q-94 0 -159.5 69t-65.5 185q0 118 65.5 187t159.5 69t159.5 -69t65.5 -187 q0 -116 -65.5 -185t-159.5 -69zM270 56q63 0 101.5 51.5t38.5 134.5q0 84 -38.5 136t-101.5 52q-62 0 -101 -52t-39 -136q0 -83 39 -134.5t101 -51.5z"/>
<glyph unicode="÷" d="M34 299v62h429v-62h-429zM249 96q-24 0 -39.5 15t-15.5 39q0 23 16 38t39 15t38.5 -15t15.5 -38q0 -24 -15.5 -39t-38.5 -15zM249 456q-24 0 -39.5 15t-15.5 39q0 23 16 38t39 15t38.5 -15t15.5 -38q0 -24 -15.5 -39t-38.5 -15z" glyph-name="divide"/>
<glyph unicode="ø" horiz-adv-x="542" glyph-name="oslash" d="M391 353l-213 -260q39 -39 93 -39q63 0 103.5 51.5t40.5 133.5q0 67 -24 114zM150 133l214 259q-37 40 -93 40q-63 0 -103.5 -52t-40.5 -134q0 -67 23 -113zM496 480l-54 -65q54 -70 54 -173q0 -116 -65.5 -185t-159.5 -69q-79 0 -139 49l-49 -60l-37 29l54 65 q-54 70 -54 171q0 118 65.5 187t159.5 69q80 0 139 -50l50 61z"/>
<glyph unicode="ù" horiz-adv-x="544" glyph-name="ugrave" d="M261 573l-118 161h97l94 -161h-73zM224 -12q-149 0 -149 190v308h83v-297q0 -68 21.5 -99t69.5 -31q37 0 66 19t65 63v345h82v-486h-68l-7 76h-3q-75 -88 -160 -88z"/>
<glyph unicode="ú" horiz-adv-x="544" glyph-name="uacute" d="M210 573l94 161h97l-118 -161h-73zM224 -12q-149 0 -149 190v308h83v-297q0 -68 21.5 -99t69.5 -31q37 0 66 19t65 63v345h82v-486h-68l-7 76h-3q-75 -88 -160 -88z"/>
<glyph unicode="û" horiz-adv-x="544" glyph-name="ucircumflex" d="M126 573l105 161h82l105 -161h-67l-77 108h-4l-77 -108h-67zM224 -12q-149 0 -149 190v308h83v-297q0 -68 21.5 -99t69.5 -31q37 0 66 19t65 63v345h82v-486h-68l-7 76h-3q-75 -88 -160 -88z"/>
<glyph unicode="ü" horiz-adv-x="544" glyph-name="udieresis" d="M224 -12q-149 0 -149 190v308h83v-297q0 -68 21.5 -99t69.5 -31q37 0 66 19t65 63v345h82v-486h-68l-7 76h-3q-75 -88 -160 -88zM186 588q-22 0 -35.5 14t-13.5 35t13.5 35t35.5 14q21 0 35 -14t14 -35t-14 -35t-35 -14zM358 588q-21 0 -35 14t-14 35t14 35t35 14 q22 0 35.5 -14t13.5 -35t-13.5 -35t-35.5 -14z"/>
<glyph unicode="ý" horiz-adv-x="467" glyph-name="yacute" d="M90 -209q-30 0 -57 10l16 65q23 -7 37 -7q75 0 110 104l11 36l-195 487h85l99 -269q20 -56 47 -137h4q8 26 23 76t18 61l87 269h80l-183 -526q-28 -80 -70.5 -124.5t-111.5 -44.5zM181 573l94 161h97l-118 -161h-73z"/>
<glyph unicode="þ" horiz-adv-x="555" glyph-name="thorn" d="M82 -205v917h82v-194l-1 -83q80 63 148 63q94 0 145 -66.5t51 -181.5q0 -119 -61.5 -190.5t-148.5 -71.5q-64 0 -134 54l1 -83v-164h-82zM283 57q61 0 100 52.5t39 140.5q0 179 -128 179q-56 0 -130 -66v-255q61 -51 119 -51z"/>
<glyph unicode="Ѐ" horiz-adv-x="527" glyph-name="uni0400" d="M90 0v656h378v-70h-295v-206h249v-71h-249v-238h305v-71h-388zM262 706l-115 118h102l90 -118h-77z"/>
<glyph unicode="Ё" horiz-adv-x="527" glyph-name="uni0401" d="M198 715q-22 0 -35.5 14t-13.5 35q0 22 13.5 35.5t35.5 13.5q21 0 35 -13.5t14 -35.5q0 -21 -14 -35t-35 -14zM370 715q-21 0 -35 14t-14 35q0 22 14 35.5t35 13.5q22 0 35.5 -13.5t13.5 -35.5q0 -21 -13.5 -35t-35.5 -14zM90 0v656h378v-70h-295v-206h249v-71h-249v-238 h305v-71h-388z"/>
<glyph unicode="Ђ" horiz-adv-x="694" glyph-name="uni0402" d="M458 -12q-34 0 -64 10l15 67q18 -8 39 -8q42 0 74.5 32.5t32.5 101.5q0 141 -161 141q-57 0 -104 -10v-322h-84v586h-178v70h491v-70h-229v-195q53 10 115 10q106 0 169.5 -51.5t63.5 -157.5q0 -105 -51.5 -154.5t-128.5 -49.5z"/>
<glyph unicode="Ѓ" horiz-adv-x="498" glyph-name="uni0403" d="M90 0v656h378v-70h-295v-586h-83zM235 706l90 118h102l-115 -118h-77z"/>
<glyph unicode="Є" horiz-adv-x="571" glyph-name="uni0404" d="M493 135l46 -52q-82 -95 -201 -95q-130 0 -208 88.5t-78 251.5q0 162 79.5 251t210.5 89q109 0 181 -81l-45 -54q-59 62 -135 62q-88 0 -142.5 -56t-64.5 -159h275v-71h-276q4 -122 58 -185t148 -63q84 0 152 74z"/>
<glyph unicode="Ѕ" horiz-adv-x="534" glyph-name="uni0405" d="M272 -12q-136 0 -230 97l50 58q79 -82 181 -82q64 0 100.5 29t36.5 78q0 24 -7 41.5t-25.5 31.5t-32.5 21.5t-44 21.5l-94 41q-133 56 -133 169q0 75 58.5 124.5t147.5 49.5q115 0 194 -81l-45 -54q-65 62 -149 62q-55 0 -88.5 -26t-33.5 -70q0 -22 8.5 -39.5t27.5 -31 t33 -20.5t40 -18l93 -40q65 -28 100 -68t35 -107q0 -80 -61 -133.5t-162 -53.5z"/>
<glyph unicode="І" horiz-adv-x="263" glyph-name="uni0406" d="M90 0v656h83v-656h-83z"/>
<glyph unicode="Ї" horiz-adv-x="263" glyph-name="uni0407" d="M90 0v656h83v-656h-83zM45 715q-22 0 -35.5 14t-13.5 35q0 22 13.5 35.5t35.5 13.5q21 0 35 -13.5t14 -35.5q0 -21 -14 -35t-35 -14zM217 715q-21 0 -35 14t-14 35q0 22 14 35.5t35 13.5q22 0 35.5 -13.5t13.5 -35.5q0 -21 -13.5 -35t-35.5 -14z"/>
<glyph unicode="Ј" horiz-adv-x="480" glyph-name="uni0408" d="M212 -12q-123 0 -181 105l60 42q41 -74 113 -74q53 0 79 33t26 107v455h84v-463q0 -91 -45 -148t-136 -57z"/>
<glyph unicode="Љ" horiz-adv-x="901" glyph-name="uni0409" d="M524 68h81q170 0 170 132q0 120 -173 120h-78v-252zM524 387h90q114 0 178.5 -45t64.5 -140q0 -102 -64 -152t-178 -50h-91h-84v586h-159q-10 -53 -30 -171t-32 -181q-27 -145 -62.5 -195.5t-97.5 -50.5q-33 0 -56 9l18 77q14 -6 28 -6q29 0 49 34t42 142q19 97 76 412 h224h84v-269z"/>
<glyph unicode="Њ" horiz-adv-x="929" glyph-name="uni040A" d="M552 68h81q170 0 170 132q0 120 -172 120h-79v-252zM552 387h91q113 0 177.5 -45t64.5 -140q0 -102 -63.5 -152t-177.5 -50h-92h-84v309h-295v-309h-83v656h83v-275h295v275h84v-269z"/>
<glyph unicode="Ћ" horiz-adv-x="696" glyph-name="uni040B" d="M290 586v-195q53 10 111 10q228 0 228 -206v-195h-82v195q0 72 -37.5 104.5t-116.5 32.5q-56 0 -103 -10v-322h-84v586h-178v70h178h84h229v-70h-229z"/>
<glyph unicode="Ќ" horiz-adv-x="580" glyph-name="uni040C" d="M460 828l-115 -118h-77l90 118h102zM352 350l226 -350h-91l-202 311h-112v-311h-83v656h83v-277h113l92 167q40 72 71 97t77 25q21 0 36 -6l-14 -78q-11 4 -24 4q-22 0 -39.5 -16t-45.5 -67z"/>
<glyph unicode="Ѝ" horiz-adv-x="656" glyph-name="uni040D" d="M90 0v656h82v-339q0 -44 -10 -209h4l71 134l241 414h88v-656h-82v343q0 40 10 205h-4l-71 -134l-241 -414h-88zM310 710l-115 118h102l90 -118h-77z"/>
<glyph unicode="Ў" horiz-adv-x="514" glyph-name="uni040E" d="M136 -12q-39 0 -65 10l17 75q19 -7 42 -7q59 0 85 53l14 35l-224 502h89l122 -292l50 -129h4l46 129l113 292h85l-215 -537q-53 -131 -163 -131zM257 705q-77 0 -112.5 33.5t-38.5 85.5h72q4 -73 79 -73t79 73h72q-3 -52 -38.5 -85.5t-112.5 -33.5z"/>
<glyph unicode="Џ" horiz-adv-x="645" glyph-name="uni040F" d="M555 656v-656h-187l-8 -188h-73v188h-197v656h83v-585h299v585h83z"/>
<glyph unicode="А" horiz-adv-x="544" glyph-name="uni0410" d="M172 267h197l-31 100q-31 94 -66 221h-4q-31 -117 -65 -221zM452 0l-62 200h-239l-63 -200h-85l222 656h94l222 -656h-89z"/>
<glyph unicode="Б" horiz-adv-x="580" glyph-name="uni0411" d="M90 0v656h405v-70h-322v-206h126q111 0 175.5 -43.5t64.5 -137.5q0 -100 -62 -149.5t-174 -49.5h-213zM173 66h116q168 0 168 131q0 62 -42 90.5t-128 28.5h-114v-250z"/>
<glyph unicode="В" horiz-adv-x="588" glyph-name="uni0412" d="M90 0v656h195q225 0 225 -160q0 -50 -25.5 -89t-70.5 -54v-4q62 -12 98 -52t36 -105q0 -94 -67.5 -143t-181.5 -49h-209zM173 377h97q158 0 158 108q0 56 -38 80.5t-116 24.5h-101v-213zM173 66h114q179 0 179 129q0 118 -179 118h-114v-247z"/>
<glyph unicode="Г" horiz-adv-x="498" glyph-name="uni0413" d="M90 0v656h378v-70h-295v-586h-83z"/>
<glyph unicode="Д" horiz-adv-x="638" glyph-name="uni0414" d="M150 71h305v515h-183q-10 -55 -24.5 -146t-24.5 -147q-31 -162 -73 -222zM598 71h14v-50l-9 -209h-73v188h-75h-347v-188h-73l-9 209v50h20h10q51 21 91 236q24 131 60 349h332v-585h59z"/>
<glyph unicode="Е" horiz-adv-x="527" glyph-name="uni0415" d="M90 0v656h378v-70h-295v-206h249v-71h-249v-238h305v-71h-388z"/>
<glyph unicode="Ж" horiz-adv-x="805" glyph-name="uni0416" d="M599 350l199 -350h-91l-170 311h-95v-311h-79v311h-95l-170 -311h-92l200 350l-69 155q-24 51 -42.5 67t-43.5 16q-13 0 -24 -4l-14 78q15 6 36 6q47 0 80.5 -25.5t67.5 -96.5l77 -167h89v277h79v-277h88l78 167q34 71 67.5 96.5t80.5 25.5q21 0 36 -6l-14 -78 q-12 4 -24 4q-25 0 -43.5 -16t-42.5 -67z"/>
<glyph unicode="З" horiz-adv-x="554" glyph-name="uni0417" d="M278 -12q-143 0 -236 96l47 57q43 -43 87 -61.5t101 -18.5q66 0 110.5 34.5t44.5 94.5q0 123 -177 123h-74v64h54q163 0 163 113q0 50 -35.5 77.5t-92.5 27.5q-88 0 -154 -61l-45 56q80 78 201 78q94 0 151 -45t57 -123q0 -52 -25.5 -91.5t-72.5 -56.5v-4 q59 -12 95.5 -54.5t36.5 -107.5q0 -92 -67 -145t-169 -53z"/>
<glyph unicode="И" horiz-adv-x="656" glyph-name="uni0418" d="M90 0v656h82v-339q0 -44 -10 -209h4l71 134l241 414h88v-656h-82v343q0 40 10 205h-4l-71 -134l-241 -414h-88z"/>
<glyph unicode="Й" horiz-adv-x="656" glyph-name="uni0419" d="M90 0v656h82v-339q0 -44 -10 -209h4l71 134l241 414h88v-656h-82v343q0 40 10 205h-4l-71 -134l-241 -414h-88zM332 709q-77 0 -112.5 33.5t-38.5 85.5h72q4 -73 79 -73t79 73h72q-3 -52 -38.5 -85.5t-112.5 -33.5z"/>
<glyph unicode="К" horiz-adv-x="580" glyph-name="uni041A" d="M352 350l226 -350h-91l-202 311h-112v-311h-83v656h83v-277h113l92 167q40 72 71 97t77 25q21 0 36 -6l-14 -78q-11 4 -24 4q-22 0 -39.5 -16t-45.5 -67z"/>
<glyph unicode="Л" horiz-adv-x="630" glyph-name="uni041B" d="M56 -12q-33 0 -56 9l17 77q15 -6 28 -6q30 0 50 34t42 142q29 148 75 412h328v-656h-83v586h-180q-55 -312 -62 -351q-27 -145 -62 -196t-97 -51z"/>
<glyph unicode="М" horiz-adv-x="727" glyph-name="uni041C" d="M90 0v656h100l126 -350q8 -23 23.5 -68.5t23.5 -68.5h4q8 23 22.5 68.5t22.5 68.5l124 350h101v-656h-78v361q0 35 11 194h-4l-52 -149l-124 -340h-55l-124 340l-52 149h-4q10 -145 10 -194v-361h-75z"/>
<glyph unicode="Н" horiz-adv-x="652" glyph-name="uni041D" d="M90 0v656h83v-275h305v275h84v-656h-84v309h-305v-309h-83z"/>
<glyph unicode="О" horiz-adv-x="664" glyph-name="uni041E" d="M332 -12q-125 0 -202.5 93t-77.5 250q0 155 77.5 246t202.5 91t203 -91t78 -246q0 -157 -78 -250t-203 -93zM332 61q88 0 141 73.5t53 196.5q0 122 -53 193t-141 71t-141 -71t-53 -193q0 -123 53 -196.5t141 -73.5z"/>
<glyph unicode="П" horiz-adv-x="645" glyph-name="uni041F" d="M90 0v656h465v-656h-83v586h-299v-586h-83z"/>
<glyph unicode="Р" horiz-adv-x="566" glyph-name="uni0420" d="M90 0v656h187q246 0 246 -193q0 -100 -65 -151.5t-177 -51.5h-108v-260h-83zM173 328h98q86 0 127.5 33t41.5 102t-42 97.5t-131 28.5h-94v-261z"/>
<glyph unicode="С" horiz-adv-x="571" glyph-name="uni0421" d="M338 -12q-126 0 -206 91.5t-80 248.5q0 155 81.5 247.5t209.5 92.5q108 0 180 -81l-45 -54q-59 62 -134 62q-93 0 -149.5 -71.5t-56.5 -193.5q0 -124 55 -196.5t148 -72.5q84 0 152 74l46 -52q-82 -95 -201 -95z"/>
<glyph unicode="Т" horiz-adv-x="536" glyph-name="uni0422" d="M226 0v586h-198v70h480v-70h-198v-586h-84z"/>
<glyph unicode="У" horiz-adv-x="514" glyph-name="uni0423" d="M136 -12q-39 0 -65 10l17 75q19 -7 42 -7q59 0 85 53l14 35l-224 502h89l122 -292l50 -129h4l46 129l113 292h85l-215 -537q-53 -131 -163 -131z"/>
<glyph unicode="Ф" horiz-adv-x="732" glyph-name="uni0424" d="M403 511v-365q97 3 149.5 51.5t52.5 133.5t-52 131t-150 49zM329 146v365q-98 -3 -150 -49t-52 -131t52.5 -133.5t149.5 -51.5zM403 668v-93q134 -4 208 -67t74 -177q0 -115 -74 -179.5t-208 -69.5v-94h-74v94q-134 5 -208 69.5t-74 179.5q0 114 74 177t208 67v93h74z "/>
<glyph unicode="Х" horiz-adv-x="513" glyph-name="uni0425" d="M15 0l191 339l-178 317h92l89 -168q14 -25 51 -95h4q29 61 47 95l87 168h88l-179 -321l191 -335h-92l-96 177q-5 9 -24.5 45.5t-31.5 59.5h-4q-10 -20 -52 -105l-95 -177h-88z"/>
<glyph unicode="Ц" horiz-adv-x="642" glyph-name="uni0426" d="M543 71h73v-50l-9 -209h-73v188h-38h-406v656h83v-585h287v585h83v-585z"/>
<glyph unicode="Ч" horiz-adv-x="598" glyph-name="uni0427" d="M425 0v294q-53 -10 -120 -10q-116 0 -177 50t-61 164v158h82v-158q0 -79 40.5 -112t123.5 -33q67 0 112 10v293h83v-656h-83z"/>
<glyph unicode="Ш" horiz-adv-x="865" glyph-name="uni0428" d="M90 0v656h82v-585h220v585h81v-585h220v585h82v-656h-685z"/>
<glyph unicode="Щ" horiz-adv-x="874" glyph-name="uni0429" d="M775 71h73v-50l-9 -209h-73v188h-38h-638v656h82v-585h220v585h81v-585h220v585h82v-585z"/>
<glyph unicode="Ъ" horiz-adv-x="720" glyph-name="uni042A" d="M238 0v586h-210v70h294v-269h108q111 0 178.5 -46t67.5 -139q0 -102 -63.5 -152t-176.5 -50h-198zM322 68h104q84 0 126 31.5t42 100.5q0 120 -175 120h-97v-252z"/>
<glyph unicode="Ы" horiz-adv-x="798" glyph-name="uni042B" d="M90 0v656h83v-269h102q113 0 177.5 -45t64.5 -140q0 -102 -63.5 -152t-177.5 -50h-186zM173 68h93q169 0 169 132q0 120 -172 120h-90v-252zM625 0v656h83v-656h-83z"/>
<glyph unicode="Ь" horiz-adv-x="580" glyph-name="uni042C" d="M90 0v656h83v-269h121q113 0 177.5 -45t64.5 -140q0 -102 -63.5 -152t-177.5 -50h-205zM173 68h111q170 0 170 132q0 120 -172 120h-109v-252z"/>
<glyph unicode="Э" horiz-adv-x="571" glyph-name="uni042D" d="M93 533l-46 54q34 35 86 58t110 23q127 0 201.5 -88.5t74.5 -251.5t-76 -251.5t-200 -88.5t-211 95l46 52q71 -74 163 -74q88 0 139 63.5t56 184.5h-276v71h274q-9 104 -59 159.5t-135 55.5t-147 -62z"/>
<glyph unicode="Ю" horiz-adv-x="908" glyph-name="uni042E" d="M586 61q85 0 134.5 73t49.5 197q0 122 -49.5 193t-134.5 71t-134 -71t-49 -193q0 -123 49.5 -196.5t133.5 -73.5zM173 381h148q12 135 83 211t182 76q122 0 196 -91t74 -246q0 -157 -74 -250t-196 -93q-117 0 -189 86.5t-78 234.5h-146v-309h-83v656h83v-275z"/>
<glyph unicode="Я" horiz-adv-x="582" glyph-name="uni042F" d="M409 345v244h-110q-79 0 -119 -27.5t-40 -89.5q0 -127 159 -127h110zM287 656h205v-656h-83v277h-121l-170 -277h-96l183 286q-68 17 -108 64t-40 122q0 184 230 184z"/>
<glyph unicode="а" horiz-adv-x="504" glyph-name="uni0430" d="M194 -12q-62 0 -102 37t-40 101q0 79 71 122t227 60q0 122 -100 122q-69 0 -145 -52l-32 57q98 63 191 63q86 0 127.5 -52.5t41.5 -147.5v-298h-68l-7 58h-3q-85 -70 -161 -70zM218 54q59 0 132 65v135q-118 -15 -168 -44.5t-50 -77.5q0 -39 24 -58.5t62 -19.5z"/>
<glyph unicode="б" horiz-adv-x="544" glyph-name="uni0431" d="M282 56q57 0 93 51.5t36 133.5q0 76 -34.5 120t-96.5 44q-81 0 -148 -88v-38q0 -107 38.5 -165t111.5 -58zM459 730l16 -75q-32 -21 -100 -31q-41 -6 -62.5 -10t-50 -12t-43 -18t-31.5 -27t-25.5 -40t-16 -55t-10.5 -75q66 81 165 81q88 0 141.5 -61t53.5 -166 q0 -114 -61.5 -183.5t-152.5 -69.5q-109 0 -169 80t-60 227q0 96 15 165.5t38.5 111.5t65 69.5t82.5 40t104 21.5t101 27z"/>
<glyph unicode="в" horiz-adv-x="508" glyph-name="uni0432" d="M82 0v486h187q179 0 179 -123q0 -80 -81 -104v-3q102 -24 102 -117q0 -69 -52 -104t-140 -35h-195zM163 282h92q113 0 113 73q0 72 -107 72h-98v-145zM163 59h105q119 0 119 85q0 37 -31.5 58t-92.5 21h-100v-164z"/>
<glyph unicode="г" horiz-adv-x="411" glyph-name="uni0433" d="M82 0v486h303v-67h-221v-419h-82z"/>
<glyph unicode="д" horiz-adv-x="532" glyph-name="uni0434" d="M131 67h226v352h-155l-19 -164q-15 -132 -52 -188zM439 67h71v-52l-8 -187h-71v172h-74h-228h-30v-172h-71l-9 187v52h12h12q23 13 39 54.5t29 149.5l26 215h302v-419z"/>
<glyph unicode="е" horiz-adv-x="496" glyph-name="uni0435" d="M279 -12q-100 0 -166.5 69t-66.5 185q0 114 65 185t153 71q92 0 143 -61.5t51 -166.5q0 -29 -3 -47h-328q5 -77 48.5 -123t113.5 -46q62 0 121 38l29 -54q-78 -50 -160 -50zM126 282h260q0 73 -31.5 112t-88.5 39q-53 0 -93 -40.5t-47 -110.5z"/>
<glyph unicode="ж" horiz-adv-x="681" glyph-name="uni0436" d="M515 256l153 -256h-89l-122 219h-80v-219h-73v219h-80l-122 -219h-89l153 256l-39 96q-16 39 -32 52.5t-38 13.5q-10 0 -16 -2l-15 77q13 5 29 5q42 0 73 -23t55 -81l46 -108h75v200h73v-200h75l46 108q24 58 55 81t73 23q16 0 28 -5l-14 -77q-6 2 -16 2 q-22 0 -38.5 -13.5t-32.5 -52.5z"/>
<glyph unicode="з" horiz-adv-x="456" glyph-name="uni0437" d="M221 -12q-109 0 -184 62l35 53q60 -49 142 -49q51 0 86 24t35 63q0 82 -124 82h-67v59h55q117 0 117 77q0 36 -27.5 55t-73.5 19q-72 0 -132 -43l-35 54q77 54 171 54q76 0 126.5 -33.5t50.5 -97.5q0 -35 -21.5 -64t-58.5 -44v-4q101 -27 101 -121q0 -65 -57.5 -105.5 t-138.5 -40.5z"/>
<glyph unicode="и" horiz-adv-x="565" glyph-name="uni0438" d="M82 0v486h80v-202q0 -55 -8 -179h4q6 11 30 49t34 55l184 277h77v-486h-80v202q0 54 8 180h-4q-8 -13 -31.5 -50.5t-32.5 -53.5l-185 -278h-76z"/>
<glyph unicode="й" horiz-adv-x="565" glyph-name="uni0439" d="M285 573q-70 0 -106 39.5t-38 99.5h68q4 -91 76 -91t76 91h68q-2 -60 -38 -99.5t-106 -39.5zM82 0v486h80v-202q0 -55 -8 -179h4q6 11 30 49t34 55l184 277h77v-486h-80v202q0 54 8 180h-4q-8 -13 -31.5 -50.5t-32.5 -53.5l-185 -278h-76z"/>
<glyph unicode="к" horiz-adv-x="498" glyph-name="uni043A" d="M320 256l165 -256h-90l-135 219h-96v-219h-82v486h82v-200h94l48 108q26 60 55.5 82t72.5 22q16 0 28 -5l-14 -77q-6 2 -16 2q-22 0 -38 -13t-33 -53z"/>
<glyph unicode="л" horiz-adv-x="531" glyph-name="uni043B" d="M54 -12q-22 0 -44 8l16 76q12 -4 22 -4q52 0 65 103q13 105 37 315h299v-486h-83v419h-151q-12 -111 -32 -269q-21 -162 -129 -162z"/>
<glyph unicode="м" horiz-adv-x="633" glyph-name="uni043C" d="M82 0v486h95l95 -228q38 -102 44 -118h4q36 95 44 118l93 228h94v-486h-75v218q0 43 10 168h-4q-8 -22 -25.5 -65.5t-19.5 -49.5l-92 -225h-55l-94 225q-2 6 -19.5 49.5t-25.5 65.5h-4q9 -150 9 -168v-218h-74z"/>
<glyph unicode="н" horiz-adv-x="562" glyph-name="uni043D" d="M82 0v486h82v-197h234v197h82v-486h-82v216h-234v-216h-82z"/>
<glyph unicode="о" horiz-adv-x="542" glyph-name="uni043E" d="M270 -12q-94 0 -159.5 69t-65.5 185q0 118 65.5 187t159.5 69t159.5 -69t65.5 -187q0 -116 -65.5 -185t-159.5 -69zM270 56q63 0 101.5 51.5t38.5 134.5q0 84 -38.5 136t-101.5 52q-62 0 -101 -52t-39 -136q0 -83 39 -134.5t101 -51.5z"/>
<glyph unicode="п" horiz-adv-x="553" glyph-name="uni043F" d="M82 0v486h389v-486h-82v419h-225v-419h-82z"/>
<glyph unicode="р" horiz-adv-x="555" glyph-name="uni0440" d="M82 -205v691h68l7 -56h3q81 68 155 68q92 0 142 -66.5t50 -181.5q0 -119 -61.5 -190.5t-148.5 -71.5q-63 0 -135 56l2 -85v-164h-82zM283 57q61 0 100 52.5t39 140.5q0 179 -128 179q-56 0 -130 -66v-255q61 -51 119 -51z"/>
<glyph unicode="с" horiz-adv-x="456" glyph-name="uni0441" d="M274 -12q-100 0 -164 68t-64 186t68 187t166 69q79 0 142 -57l-42 -54q-48 43 -97 43q-66 0 -109 -52.5t-43 -135.5t41.5 -134.5t108.5 -51.5q60 0 114 49l36 -55q-70 -62 -157 -62z"/>
<glyph unicode="т" horiz-adv-x="460" glyph-name="uni0442" d="M189 0v419h-163v67h408v-67h-163v-419h-82z"/>
<glyph unicode="у" horiz-adv-x="467" glyph-name="uni0443" d="M90 -209q-30 0 -57 10l16 65q23 -7 37 -7q75 0 110 104l11 36l-195 487h85l99 -269q20 -56 47 -137h4q8 26 23 76t18 61l87 269h80l-183 -526q-28 -80 -70.5 -124.5t-111.5 -44.5z"/>
<glyph unicode="ф" horiz-adv-x="734" glyph-name="uni0444" d="M327 -205v156l2 73q-49 -36 -98 -36q-84 0 -134 67t-50 187q0 115 54 185.5t130 70.5q47 0 98 -35l-2 72v177h80v-177l-2 -74q52 37 105 37q84 0 130.5 -66.5t46.5 -181.5q0 -120 -54 -191t-132 -71q-45 0 -96 35l2 -72v-156h-80zM249 57q44 0 80 35v304q-37 33 -84 33 q-49 0 -81 -52t-32 -134q0 -87 31 -136.5t86 -49.5zM487 57q52 0 83.5 52t31.5 141q0 179 -112 179q-46 0 -85 -34v-305q37 -33 82 -33z"/>
<glyph unicode="х" horiz-adv-x="446" glyph-name="uni0445" d="M14 0l159 254l-147 232h89l65 -107q33 -57 48 -81h4q24 47 44 81l59 107h86l-147 -241l158 -245h-89l-71 113q-30 52 -53 87h-4q-21 -35 -49 -87l-66 -113h-86z"/>
<glyph unicode="ц" horiz-adv-x="554" glyph-name="uni0446" d="M464 67h71v-52l-8 -187h-71v172h-38h-336v486h82v-419h218v419h82v-419z"/>
<glyph unicode="ч" horiz-adv-x="512" glyph-name="uni0447" d="M348 0v194q-49 -10 -95 -10q-194 0 -194 169v133h82v-133q0 -54 30.5 -78t97.5 -24q37 0 79 9v226h82v-486h-82z"/>
<glyph unicode="ш" horiz-adv-x="749" glyph-name="uni0448" d="M82 0v486h82v-419h171v419h79v-419h172v419h81v-486h-585z"/>
<glyph unicode="щ" horiz-adv-x="757" glyph-name="uni0449" d="M667 67h71v-52l-8 -187h-71v172h-38h-539v486h82v-419h171v419h79v-419h172v419h81v-419z"/>
<glyph unicode="ъ" horiz-adv-x="596" glyph-name="uni044A" d="M198 0v419h-172v67h254v-179h81q91 0 142 -37.5t51 -114.5q0 -78 -51 -116.5t-142 -38.5h-163zM280 66h73q121 0 121 89q0 88 -121 88h-73v-177z"/>
<glyph unicode="ы" horiz-adv-x="674" glyph-name="uni044B" d="M82 0v486h82v-179h69q90 0 141.5 -37.5t51.5 -114.5q0 -78 -51.5 -116.5t-141.5 -38.5h-151zM164 66h60q121 0 121 89q0 88 -121 88h-60v-177zM510 0v486h82v-486h-82z"/>
<glyph unicode="ь" horiz-adv-x="491" glyph-name="uni044C" d="M82 0v486h82v-179h92q90 0 141.5 -37.5t51.5 -114.5q0 -78 -51.5 -116.5t-141.5 -38.5h-174zM164 66h83q121 0 121 89q0 88 -121 88h-83v-177z"/>
<glyph unicode="э" horiz-adv-x="456" glyph-name="uni044D" d="M73 390l-39 50q62 58 154 58q96 0 159 -65.5t63 -190.5q0 -123 -62.5 -188.5t-164.5 -65.5q-94 0 -159 62l34 50q51 -46 118 -46q68 0 109.5 43t45.5 126h-215v59h213q-9 74 -48 112.5t-98 38.5q-60 0 -110 -43z"/>
<glyph unicode="ю" horiz-adv-x="738" glyph-name="uni044E" d="M478 56q59 0 94 51t35 135q0 85 -35 136.5t-94 51.5t-95.5 -52t-36.5 -136q0 -83 36.5 -134.5t95.5 -51.5zM164 286h106q12 99 70 155.5t142 56.5q90 0 150 -68.5t60 -187.5q0 -117 -60 -185.5t-150 -68.5q-87 0 -146 60.5t-67 164.5h-105v-213h-82v486h82v-200z"/>
<glyph unicode="я" horiz-adv-x="514" glyph-name="uni044F" d="M350 252v170h-76q-122 0 -122 -82q0 -42 32 -65t90 -23h76zM260 486h172v-486h-82v192h-90h-1l-134 -192h-93l148 203q-50 15 -80.5 50t-30.5 89q0 144 191 144z"/>
<glyph unicode="ѐ" horiz-adv-x="496" glyph-name="uni0450" d="M253 573l-118 161h97l94 -161h-73zM279 -12q-100 0 -166.5 69t-66.5 185q0 114 65 185t153 71q92 0 143 -61.5t51 -166.5q0 -29 -3 -47h-328q5 -77 48.5 -123t113.5 -46q62 0 121 38l29 -54q-78 -50 -160 -50zM126 282h260q0 73 -31.5 112t-88.5 39q-53 0 -93 -40.5 t-47 -110.5z"/>
<glyph unicode="ё" horiz-adv-x="496" glyph-name="uni0451" d="M279 -12q-100 0 -166.5 69t-66.5 185q0 114 65 185t153 71q92 0 143 -61.5t51 -166.5q0 -29 -3 -47h-328q5 -77 48.5 -123t113.5 -46q62 0 121 38l29 -54q-78 -50 -160 -50zM126 282h260q0 73 -31.5 112t-88.5 39q-53 0 -93 -40.5t-47 -110.5zM178 588q-22 0 -35.5 14 t-13.5 35t13.5 35t35.5 14q21 0 35 -14t14 -35t-14 -35t-35 -14zM350 588q-21 0 -35 14t-14 35t14 35t35 14q22 0 35.5 -14t13.5 -35t-13.5 -35t-35.5 -14z"/>
<glyph unicode="ђ" horiz-adv-x="548" glyph-name="uni0452" d="M164 478l-4 -97q80 78 159 78q180 0 180 -288q0 -111 -14 -187.5t-41.5 -120t-63.5 -62t-85 -18.5q-35 0 -61 13l16 62q22 -8 40 -8q28 0 49 14.5t39 48t27 96.5t9 153q0 124 -29.5 174.5t-91.5 50.5q-33 0 -62.5 -17t-66.5 -55v-315h-82v571h-74v43l74 5v93h82v-93h182 v-48h-182v-93z"/>
<glyph unicode="ѓ" horiz-adv-x="411" glyph-name="uni0453" d="M82 0v486h303v-67h-221v-419h-82zM185 574l94 161h97l-118 -161h-73z"/>
<glyph unicode="є" horiz-adv-x="456" glyph-name="uni0454" d="M398 102l33 -52q-70 -62 -157 -62q-102 0 -165 65.5t-63 188.5t66.5 189.5t166.5 66.5q80 0 143 -57l-39 -52q-51 44 -104 44q-61 0 -101.5 -39t-50.5 -112h226v-59h-228q4 -83 45.5 -126t110.5 -43q62 0 117 48z"/>
<glyph unicode="ѕ" horiz-adv-x="419" glyph-name="uni0455" d="M209 -12q-100 0 -181 67l41 55q72 -58 143 -58q46 0 71 21.5t25 54.5q0 18 -9 32t-28 25.5t-33 18t-41 16.5q-32 11 -53 21t-44.5 27t-35.5 40t-12 52q0 60 45 99t122 39q83 0 151 -55l-39 -52q-57 43 -111 43q-43 0 -66 -20t-23 -50q0 -20 16.5 -36.5t31 -23.5t50.5 -20 q7 -3 10 -4q28 -11 43 -17t38.5 -19.5t35.5 -27t21.5 -35t9.5 -48.5q0 -62 -47.5 -103.5t-130.5 -41.5z"/>
<glyph unicode="і" horiz-adv-x="246" glyph-name="uni0456" d="M82 0v486h82v-486h-82zM124 586q-24 0 -40.5 15t-16.5 38q0 24 16.5 38.5t40.5 14.5t40.5 -14.5t16.5 -38.5q0 -23 -16.5 -38t-40.5 -15z"/>
<glyph unicode="ї" horiz-adv-x="246" glyph-name="uni0457" d="M82 0v486h82v-486h-82zM37 588q-22 0 -35.5 14t-13.5 35t13.5 35t35.5 14q21 0 35 -14t14 -35t-14 -35t-35 -14zM209 588q-21 0 -35 14t-14 35t14 35t35 14q22 0 35.5 -14t13.5 -35t-13.5 -35t-35.5 -14z"/>
<glyph unicode="ј" horiz-adv-x="247" glyph-name="uni0458" d="M32 -217q-40 0 -72 13l17 62q24 -8 46 -8q34 0 47 23.5t13 71.5v541h82v-541q0 -162 -133 -162zM125 586q-24 0 -40.5 15t-16.5 38q0 24 16.5 38.5t40.5 14.5t40 -14.5t16 -38.5q0 -23 -16 -38t-40 -15z"/>
<glyph unicode="љ" horiz-adv-x="735" glyph-name="uni0459" d="M436 66h55q122 0 122 89q0 88 -122 88h-55v-177zM436 307h64q90 0 141.5 -37.5t51.5 -114.5q0 -78 -51.5 -116.5t-141.5 -38.5h-64h-83v419h-137q-14 -201 -27 -281q-12 -75 -47 -112.5t-86 -37.5q-23 0 -44 8l15 76q14 -4 22 -4q52 0 69 103q17 112 26 315h209h83v-179z "/>
<glyph unicode="њ" horiz-adv-x="758" glyph-name="uni045A" d="M459 66h56q121 0 121 89q0 88 -121 88h-56v-177zM459 307h64q91 0 142.5 -37.5t51.5 -114.5q0 -78 -51.5 -116.5t-142.5 -38.5h-64h-82v216h-213v-216h-82v486h82v-197h213v197h82v-179z"/>
<glyph unicode="ћ" horiz-adv-x="544" glyph-name="uni045B" d="M164 478l-3 -100q85 81 162 81q148 0 148 -190v-269h-82v258q0 68 -22 98.5t-70 30.5q-35 0 -64 -17t-69 -57v-313h-82v571h-74v43l74 5v93h82v-93h182v-48h-182v-93z"/>
<glyph unicode="ќ" horiz-adv-x="498" glyph-name="uni045C" d="M406 735l-118 -161h-73l94 161h97zM320 256l165 -256h-90l-135 219h-96v-219h-82v486h82v-200h94l48 108q26 60 55.5 82t72.5 22q16 0 28 -5l-14 -77q-6 2 -16 2q-22 0 -38 -13t-33 -53z"/>
<glyph unicode="ѝ" horiz-adv-x="565" glyph-name="uni045D" d="M274 574l-118 161h97l94 -161h-73zM82 0v486h80v-202q0 -55 -8 -179h4q6 11 30 49t34 55l184 277h77v-486h-80v202q0 54 8 180h-4q-8 -13 -31.5 -50.5t-32.5 -53.5l-185 -278h-76z"/>
<glyph unicode="ў" horiz-adv-x="467" glyph-name="uni045E" d="M90 -209q-30 0 -57 10l16 65q23 -7 37 -7q75 0 110 104l11 36l-195 487h85l99 -269q20 -56 47 -137h4q8 26 23 76t18 61l87 269h80l-183 -526q-28 -80 -70.5 -124.5t-111.5 -44.5zM243 572q-70 0 -106 39.5t-38 99.5h68q4 -91 76 -91t76 91h68q-2 -60 -38 -99.5 t-106 -39.5z"/>
<glyph unicode="џ" horiz-adv-x="558" glyph-name="uni045F" d="M476 486v-486h-154l-9 -172h-70l-3 172h-158v486h82v-419h230v419h82z"/>
<glyph unicode="Ѣ" horiz-adv-x="614" glyph-name="uni0462" d="M250 66h74q84 0 124 30t40 98q0 61 -41 88t-130 27h-67v-243zM250 371h78q242 0 242 -173q0 -198 -236 -198h-168v507h-138v68h138v125h84v-125h234v-68h-234v-136z"/>
<glyph unicode="ѣ" horiz-adv-x="576" glyph-name="uni0463" d="M178 0v439h-152v67h152v116h82v-116h188v-67h-188v-132h81q91 0 142 -37.5t51 -114.5q0 -78 -51 -116.5t-142 -38.5h-163zM260 66h72q122 0 122 89q0 88 -122 88h-72v-177z"/>
<glyph unicode="Ѳ" horiz-adv-x="664" glyph-name="uni0472" d="M530 311h-396q5 -121 58 -187t140 -66t140 66t58 187zM136 379h392q-10 104 -62 161.5t-134 57.5t-134 -57.5t-62 -161.5zM332 668q127 0 204 -89t77 -248q0 -161 -77.5 -252t-203.5 -91t-203 91t-77 252q0 160 76.5 248.5t203.5 88.5z"/>
<glyph unicode="ѳ" horiz-adv-x="542" glyph-name="uni0473" d="M418 223h-293q4 -79 44 -124.5t102 -45.5q63 0 103 45.5t44 124.5zM126 282h291q-9 72 -48 112t-98 40q-58 0 -97 -40.5t-48 -111.5zM271 498q96 0 160.5 -67.5t64.5 -188.5q0 -120 -64.5 -187t-160.5 -67t-160.5 67t-64.5 187q0 121 64.5 188.5t160.5 67.5z"/>
<glyph unicode="Ѵ" horiz-adv-x="529" glyph-name="uni0474" d="M210 0l-210 656h89l105 -354l64 -217h4q9 33 27 104t30 113l64 227q20 74 49.5 106.5t80.5 32.5q27 0 48 -9l-17 -77q-14 6 -26 6q-21 0 -34 -17.5t-25 -56.5l-147 -514h-102z"/>
<glyph unicode="ѵ" horiz-adv-x="477" glyph-name="uni0475" d="M187 0l-175 486h85l92 -276q5 -18 46 -143h4q31 120 38 143l48 148q21 75 48.5 107.5t76.5 32.5q24 0 48 -9l-16 -74q-10 6 -25 6q-21 0 -34 -17t-26 -56l-109 -348h-101z"/>
<glyph unicode="Ґ" horiz-adv-x="498" glyph-name="uni0490" d="M406 828h71l-9 -242h-108h-187v-586h-83v656h270h31z"/>
<glyph unicode="ґ" horiz-adv-x="416" glyph-name="uni0491" d="M332 658h67l-9 -239h-107h-119v-419h-82v486h201h33z"/>
<glyph unicode="Ғ" horiz-adv-x="521" glyph-name="uni0492" d="M490 586h-295v-232h149v-47h-149v-307h-83v307h-79v44l79 3v302h378v-70z"/>
<glyph unicode="ғ" horiz-adv-x="424" glyph-name="uni0493" d="M399 419h-221v-159h133v-47h-133v-213h-82v213h-66v42l66 5v226h303v-67z"/>
<glyph unicode="Җ" horiz-adv-x="847" glyph-name="uni0496" d="M758 71h63v-50l-9 -209h-73v188h-26h-6l-170 311h-95v-311h-79v311h-95l-170 -311h-92l200 350l-69 155q-24 51 -42.5 67t-43.5 16q-13 0 -24 -4l-14 78q15 6 36 6q47 0 80.5 -25.5t67.5 -96.5l77 -167h89v277h79v-277h88l78 167q34 71 67.5 96.5t80.5 25.5q21 0 36 -6 l-14 -78q-12 4 -24 4q-25 0 -43.5 -16t-42.5 -67l-69 -155z"/>
<glyph unicode="җ" horiz-adv-x="718" glyph-name="uni0497" d="M628 67h71v-52l-8 -187h-71v172h-26h-15l-122 219h-80v-219h-73v219h-80l-122 -219h-89l153 256l-39 96q-16 39 -32 52.5t-38 13.5q-10 0 -16 -2l-15 77q13 5 29 5q42 0 73 -23t55 -81l46 -108h75v200h73v-200h75l46 108q24 58 55 81t73 23q16 0 28 -5l-14 -77 q-6 2 -16 2q-22 0 -38.5 -13.5t-32.5 -52.5l-38 -96z"/>
<glyph unicode="Ҙ" horiz-adv-x="554" glyph-name="uni0498" d="M382 352v-4q59 -12 95.5 -54.5t36.5 -107.5q0 -81 -53.5 -132.5t-138.5 -62.5l-8 -179h-73v178q-117 9 -199 94l47 57q43 -43 87 -61.5t101 -18.5q66 0 110.5 34.5t44.5 94.5q0 123 -177 123h-74v64h54q163 0 163 113q0 50 -35.5 77.5t-92.5 27.5q-88 0 -154 -61l-45 56 q80 78 201 78q94 0 151 -45t57 -123q0 -52 -25.5 -91.5t-72.5 -56.5z"/>
<glyph unicode="ҙ" horiz-adv-x="456" glyph-name="uni0499" d="M316 259v-4q101 -27 101 -121q0 -57 -43.5 -95t-110.5 -48l-9 -163h-68l-4 162q-82 8 -145 60l35 53q60 -49 142 -49q51 0 86 24t35 63q0 82 -124 82h-67v59h55q117 0 117 77q0 36 -27.5 55t-73.5 19q-72 0 -132 -43l-35 54q77 54 171 54q76 0 126.5 -33.5t50.5 -97.5 q0 -35 -21.5 -64t-58.5 -44z"/>
<glyph unicode="Қ" horiz-adv-x="628" glyph-name="uni049A" d="M532 71h70v-50l-9 -209h-73v188h-26h-7l-202 311h-112v-311h-83v656h83v-277h113l92 167q40 72 71 97t77 25q21 0 36 -6l-14 -78q-11 4 -24 4q-22 0 -39.5 -16t-45.5 -67l-87 -155z"/>
<glyph unicode="қ" horiz-adv-x="536" glyph-name="uni049B" d="M442 67h75v-52l-9 -187h-70v172h-26h-17l-135 219h-96v-219h-82v486h82v-200h94l48 108q26 60 55.5 82t72.5 22q16 0 28 -5l-14 -77q-6 2 -16 2q-22 0 -38 -13t-33 -53l-41 -96z"/>
<glyph unicode="Ҡ" horiz-adv-x="716" glyph-name="uni04A0" d="M489 350l226 -350h-91l-202 311h-112v-311h-83v587l-1 -1h-198v70h199h83v-277h113l92 167q40 72 71 97t77 25q21 0 36 -6l-14 -78q-11 4 -24 4q-22 0 -39.5 -16t-45.5 -67z"/>
<glyph unicode="ҡ" horiz-adv-x="614" glyph-name="uni04A1" d="M436 256l165 -256h-90l-135 219h-96v-219h-82v419h-172v67h172h82v-200h94l48 108q26 60 55.5 82t72.5 22q16 0 28 -5l-14 -77q-6 2 -16 2q-22 0 -38 -13t-33 -53z"/>
<glyph unicode="Ң" horiz-adv-x="661" glyph-name="uni04A2" d="M562 71h73v-50l-9 -209h-73v188h-38h-37v309h-305v-309h-83v656h83v-275h305v275h84v-585z"/>
<glyph unicode="ң" horiz-adv-x="570" glyph-name="uni04A3" d="M481 67h70v-52l-9 -187h-71v172h-38h-34v216h-234v-216h-82v486h82v-197h234v197h82v-419z"/>
<glyph unicode="Ҫ" horiz-adv-x="571" glyph-name="uni04AA" d="M493 135l46 -52q-67 -78 -159 -92l-8 -179h-73v178q-111 15 -179 104.5t-68 233.5q0 155 81.5 247.5t209.5 92.5q108 0 180 -81l-45 -54q-59 62 -134 62q-93 0 -149.5 -71.5t-56.5 -193.5q0 -124 55 -196.5t148 -72.5q84 0 152 74z"/>
<glyph unicode="ҫ" horiz-adv-x="456" glyph-name="uni04AB" d="M395 105l36 -55q-53 -47 -120 -59l-9 -163h-68l-4 164q-83 15 -133.5 80.5t-50.5 169.5q0 118 68 187t166 69q79 0 142 -57l-42 -54q-48 43 -97 43q-66 0 -109 -52.5t-43 -135.5t41.5 -134.5t108.5 -51.5q60 0 114 49z"/>
<glyph unicode="Ү" horiz-adv-x="476" glyph-name="uni04AE" d="M196 0v254l-197 402h89l85 -185q46 -105 63 -143h4q57 122 66 143l84 185h87l-197 -402v-254h-84z"/>
<glyph unicode="ү" horiz-adv-x="467" glyph-name="uni04AF" d="M195 -205v205l-183 486h85l91 -265q7 -24 46 -141h4q5 15 21 64.5t24 76.5l91 265h81l-178 -486v-205h-82z"/>
<glyph unicode="Ұ" horiz-adv-x="476" glyph-name="uni04B0" d="M477 656l-179 -366h121v-47h-139v-243h-84v243h-139v44l88 3h33l-179 366h89l85 -185q46 -105 63 -143h4q57 122 66 143l84 185h87z"/>
<glyph unicode="ұ" horiz-adv-x="467" glyph-name="uni04B1" d="M455 486l-161 -439h125v-47h-142v-205h-82v205h-148v42l78 5h52l-165 439h85l91 -265q7 -24 46 -141h4q5 15 21 64.5t24 76.5l91 265h81z"/>
<glyph unicode="Ҳ" horiz-adv-x="551" glyph-name="uni04B2" d="M458 71h68v-50l-9 -209h-72v188h-28h-11l-96 177q-5 9 -24.5 45.5t-31.5 59.5h-4q-10 -20 -52 -105l-95 -177h-88l191 339l-178 317h92l89 -168q14 -25 51 -95h4q29 61 47 95l87 168h88l-179 -321z"/>
<glyph unicode="ҳ" horiz-adv-x="482" glyph-name="uni04B3" d="M389 67h73v-52l-8 -187h-70v172h-26h-15l-71 113q-30 52 -53 87h-4q-21 -35 -49 -87l-66 -113h-86l159 254l-147 232h89l65 -107q33 -57 48 -81h4q24 47 44 81l59 107h86l-147 -241z"/>
<glyph unicode="Ҷ" horiz-adv-x="594" glyph-name="uni04B6" d="M490 71h74v-50l-9 -209h-72v188h-39h-37v294q-53 -10 -120 -10q-116 0 -177 50t-61 164v158h82v-158q0 -79 40.5 -112t123.5 -33q67 0 112 10v293h83v-585z"/>
<glyph unicode="ҷ" horiz-adv-x="520" glyph-name="uni04B7" d="M430 67h71v-52l-9 -187h-70v172h-39h-35v194q-49 -10 -95 -10q-194 0 -194 169v133h82v-133q0 -54 30.5 -78t97.5 -24q37 0 79 9v226h82v-419z"/>
<glyph unicode="Һ" horiz-adv-x="598" glyph-name="uni04BA" d="M90 0v656h83v-258q64 10 119 10q117 0 178 -50t61 -164v-194h-82v194q0 80 -40.5 112.5t-124.5 32.5q-57 0 -111 -10v-329h-83z"/>
<glyph unicode="һ" horiz-adv-x="544" glyph-name="uni04BB" d="M82 0v712h82v-194l-3 -100q84 80 162 80q148 0 148 -190v-308h-82v297q0 68 -22 99t-70 31q-35 0 -64 -17.5t-69 -57.5v-352h-82z"/>
<glyph unicode="Ӏ" horiz-adv-x="263" glyph-name="uni04C0" d="M90 0v656h83v-656h-83z"/>
<glyph unicode="Ӂ" horiz-adv-x="805" glyph-name="uni04C1" d="M481 824h72q-3 -52 -38.5 -85.5t-112.5 -33.5t-112.5 33.5t-38.5 85.5h72q4 -73 79 -73t79 73zM599 350l199 -350h-91l-170 311h-95v-311h-79v311h-95l-170 -311h-92l200 350l-69 155q-24 51 -42.5 67t-43.5 16q-13 0 -24 -4l-14 78q15 6 36 6q47 0 80.5 -25.5 t67.5 -96.5l77 -167h89v277h79v-277h88l78 167q34 71 67.5 96.5t80.5 25.5q21 0 36 -6l-14 -78q-12 4 -24 4q-25 0 -43.5 -16t-42.5 -67z"/>
<glyph unicode="ӂ" horiz-adv-x="681" glyph-name="uni04C2" d="M417 711h68q-2 -60 -38 -99.5t-106 -39.5t-106 39.5t-38 99.5h68q4 -91 76 -91t76 91zM515 256l153 -256h-89l-122 219h-80v-219h-73v219h-80l-122 -219h-89l153 256l-39 96q-16 39 -32 52.5t-38 13.5q-10 0 -16 -2l-15 77q13 5 29 5q42 0 73 -23t55 -81l46 -108h75v200 h73v-200h75l46 108q24 58 55 81t73 23q16 0 28 -5l-14 -77q-6 2 -16 2q-22 0 -38.5 -13.5t-32.5 -52.5z"/>
<glyph unicode="ӏ" horiz-adv-x="255" glyph-name="uni04CF" d="M169 -12q-87 0 -87 110v614h82v-620q0 -36 23 -36q9 0 18 2l11 -62q-18 -8 -47 -8z"/>
<glyph unicode="Ӑ" horiz-adv-x="544" glyph-name="uni04D0" d="M349 824h72q-3 -52 -38.5 -85.5t-112.5 -33.5t-112.5 33.5t-38.5 85.5h72q4 -73 79 -73t79 73zM172 267h197l-31 100q-31 94 -66 221h-4q-31 -117 -65 -221zM452 0l-62 200h-239l-63 -200h-85l222 656h94l222 -656h-89z"/>
<glyph unicode="ӑ" horiz-adv-x="504" glyph-name="uni04D1" d="M263 572q-70 0 -106 39.5t-38 99.5h68q4 -91 76 -91t76 91h68q-2 -60 -38 -99.5t-106 -39.5zM194 -12q-62 0 -102 37t-40 101q0 79 71 122t227 60q0 122 -100 122q-69 0 -145 -52l-32 57q98 63 191 63q86 0 127.5 -52.5t41.5 -147.5v-298h-68l-7 58h-3q-85 -70 -161 -70z M218 54q59 0 132 65v135q-118 -15 -168 -44.5t-50 -77.5q0 -39 24 -58.5t62 -19.5z"/>
<glyph unicode="Ӕ" horiz-adv-x="822" glyph-name="uni04D4" d="M229 258h172v332h-4q-53 -107 -107 -214zM485 71h288v-71h-372v191h-206l-99 -191h-88l344 656h411v-70h-278v-206h232v-71h-232v-238z"/>
<glyph unicode="ӕ" horiz-adv-x="785" glyph-name="uni04D5" d="M201 -12q-63 0 -103 37t-40 101q0 79 70.5 122t223.5 60q0 122 -99 122q-65 0 -141 -52l-33 57q98 63 184 63q106 0 139 -103q62 103 160 103q88 0 136.5 -61.5t48.5 -167.5q0 -28 -3 -46h-315q3 -75 45.5 -121.5t105.5 -46.5q55 0 118 40l30 -57q-78 -50 -158 -50 q-101 0 -171 91q-102 -91 -198 -91zM224 54q35 0 75 20t72 55q-17 39 -19 100v25q-113 -15 -163 -44.5t-50 -77.5q0 -39 23.5 -58.5t61.5 -19.5zM429 278h246q0 75 -29.5 115t-85.5 40q-51 0 -87.5 -42.5t-43.5 -112.5z"/>
<glyph unicode="Ӗ" horiz-adv-x="527" glyph-name="uni04D6" d="M90 0v656h378v-70h-295v-206h249v-71h-249v-238h305v-71h-388zM284 705q-77 0 -112.5 33.5t-38.5 85.5h72q4 -73 79 -73t79 73h72q-3 -52 -38.5 -85.5t-112.5 -33.5z"/>
<glyph unicode="ӗ" horiz-adv-x="496" glyph-name="uni04D7" d="M279 -12q-100 0 -166.5 69t-66.5 185q0 114 65 185t153 71q92 0 143 -61.5t51 -166.5q0 -29 -3 -47h-328q5 -77 48.5 -123t113.5 -46q62 0 121 38l29 -54q-78 -50 -160 -50zM126 282h260q0 73 -31.5 112t-88.5 39q-53 0 -93 -40.5t-47 -110.5zM264 572q-70 0 -106 39.5 t-38 99.5h68q4 -91 76 -91t76 91h68q-2 -60 -38 -99.5t-106 -39.5z"/>
<glyph unicode="Ә" horiz-adv-x="658" glyph-name="uni04D8" d="M522 286h-379q4 -108 54 -168.5t130 -60.5q84 0 135.5 59t59.5 170zM165 534l-41 57q80 77 207 77q129 0 202 -88t73 -250t-75 -252t-204 -90q-126 0 -197.5 90.5t-71.5 246.5q0 7 2 25h464q-4 121 -54.5 185t-144.5 64q-93 0 -160 -65z"/>
<glyph unicode="ә" horiz-adv-x="496" glyph-name="uni04D9" d="M238 -12q-93 0 -147 63t-54 171q0 24 4 48h327q-4 74 -42 118.5t-103 44.5q-62 0 -126 -42l-29 57q73 50 168 50q94 0 154 -68.5t60 -185.5q0 -116 -60.5 -186t-151.5 -70zM236 54q56 0 91 41t42 116h-259q0 -77 33.5 -117t92.5 -40z"/>
<glyph unicode="Ӣ" horiz-adv-x="656" glyph-name="uni04E2" d="M90 0v656h82v-339q0 -44 -10 -209h4l71 134l241 414h88v-656h-82v343q0 40 10 205h-4l-71 -134l-241 -414h-88zM208 739v57h248v-57h-248z"/>
<glyph unicode="ӣ" horiz-adv-x="552" glyph-name="uni04E3" d="M76 0v486h80v-202q0 -55 -8 -179h4q6 11 30 49t34 55l184 277h77v-486h-80v202q0 54 8 180h-4q-8 -13 -31.5 -50.5t-32.5 -53.5l-185 -278h-76zM153 602v57h252v-57h-252z"/>
<glyph unicode="Ӧ" horiz-adv-x="664" glyph-name="uni04E6" d="M246 715q-22 0 -35.5 14t-13.5 35q0 22 13.5 35.5t35.5 13.5q21 0 35 -13.5t14 -35.5q0 -21 -14 -35t-35 -14zM418 715q-21 0 -35 14t-14 35q0 22 14 35.5t35 13.5q22 0 35.5 -13.5t13.5 -35.5q0 -21 -13.5 -35t-35.5 -14zM332 -12q-125 0 -202.5 93t-77.5 250 q0 155 77.5 246t202.5 91t203 -91t78 -246q0 -157 -78 -250t-203 -93zM332 61q88 0 141 73.5t53 196.5q0 122 -53 193t-141 71t-141 -71t-53 -193q0 -123 53 -196.5t141 -73.5z"/>
<glyph unicode="ӧ" horiz-adv-x="542" glyph-name="uni04E7" d="M185 588q-22 0 -35.5 14t-13.5 35t13.5 35t35.5 14q21 0 35 -14t14 -35t-14 -35t-35 -14zM357 588q-21 0 -35 14t-14 35t14 35t35 14q22 0 35.5 -14t13.5 -35t-13.5 -35t-35.5 -14zM270 -12q-94 0 -159.5 69t-65.5 185q0 118 65.5 187t159.5 69t159.5 -69t65.5 -187 q0 -116 -65.5 -185t-159.5 -69zM270 56q63 0 101.5 51.5t38.5 134.5q0 84 -38.5 136t-101.5 52q-62 0 -101 -52t-39 -136q0 -83 39 -134.5t101 -51.5z"/>
<glyph unicode="Ө" horiz-adv-x="664" glyph-name="uni04E8" d="M530 311h-396q5 -121 58 -187t140 -66t140 66t58 187zM136 379h392q-10 104 -62 161.5t-134 57.5t-134 -57.5t-62 -161.5zM332 668q127 0 204 -89t77 -248q0 -161 -77.5 -252t-203.5 -91t-203 91t-77 252q0 160 76.5 248.5t203.5 88.5z"/>
<glyph unicode="ө" horiz-adv-x="542" glyph-name="uni04E9" d="M418 223h-293q4 -79 44 -124.5t102 -45.5q63 0 103 45.5t44 124.5zM126 282h291q-9 72 -48 112t-98 40q-58 0 -97 -40.5t-48 -111.5zM271 498q96 0 160.5 -67.5t64.5 -188.5q0 -120 -64.5 -187t-160.5 -67t-160.5 67t-64.5 187q0 121 64.5 188.5t160.5 67.5z"/>
<glyph unicode="Ӯ" horiz-adv-x="506" glyph-name="uni04EE" d="M136 -12q-39 0 -65 10l17 75q19 -7 42 -7q59 0 85 53l14 35l-224 502h89l122 -292l50 -129h4l46 129l113 292h85l-215 -537q-53 -131 -163 -131zM128 735v57h248v-57h-248z"/>
<glyph unicode="ӯ" horiz-adv-x="467" glyph-name="uni04EF" d="M90 -209q-30 0 -57 10l16 65q23 -7 37 -7q75 0 110 104l11 36l-195 487h85l99 -269q20 -56 47 -137h4q8 26 23 76t18 61l87 269h80l-183 -526q-28 -80 -70.5 -124.5t-111.5 -44.5zM117 601v57h252v-57h-252z"/>
<glyph unicode="Ӳ" horiz-adv-x="506" glyph-name="uni04F2" d="M136 706l78 118h82l-97 -118h-63zM297 706l78 118h82l-97 -118h-63zM136 -12q-39 0 -65 10l17 75q19 -7 42 -7q59 0 85 53l14 35l-224 502h89l122 -292l50 -129h4l46 129l113 292h85l-215 -537q-53 -131 -163 -131z"/>
<glyph unicode="ӳ" horiz-adv-x="467" glyph-name="uni04F3" d="M90 -209q-30 0 -57 10l16 65q23 -7 37 -7q75 0 110 104l11 36l-195 487h85l99 -269q20 -56 47 -137h4q8 26 23 76t18 61l87 269h80l-183 -526q-28 -80 -70.5 -124.5t-111.5 -44.5zM138 571l80 163h76l-98 -163h-58zM288 571l81 163h76l-98 -163h-59z"/>
</font>
</defs>
</svg>
